<svg xmlns="http://www.w3.org/2000/svg" xmlns:xlink="http://www.w3.org/1999/xlink" viewBox="0 0 55.27 33.45"><defs><style>.cls-1,.cls-4{fill:#161616;}.cls-1,.cls-11,.cls-16,.cls-17,.cls-2,.cls-3,.cls-6,.cls-7{stroke:#000;stroke-miterlimit:10;}.cls-1,.cls-11,.cls-2,.cls-6,.cls-7{stroke-width:0.82px;}.cls-2,.cls-9{fill:url(#linear-gradient);}.cls-16,.cls-3{stroke-width:0.61px;}.cls-5{clip-path:url(#clip-path);}.cls-6{fill:#282828;}.cls-16,.cls-7{fill:none;}.cls-8{clip-path:url(#clip-path-2);}.cls-10{clip-path:url(#clip-path-3);}.cls-11,.cls-12{fill:#0a0a0a;}.cls-13{clip-path:url(#clip-path-4);}.cls-14{opacity:0.8;}.cls-15{fill:#e5e5e5;}.cls-17{fill:#cec6c6;stroke-width:0.41px;}.cls-18{clip-path:url(#clip-path-5);}</style><linearGradient id="linear-gradient" x1="27.67" y1="25.9" x2="27.63" y2="12.81" gradientUnits="userSpaceOnUse"><stop offset="0" stop-color="#282828"/><stop offset="0.53" stop-color="#1b1b1b"/><stop offset="1" stop-color="#161616"/></linearGradient><clipPath id="clip-path"><path class="cls-1" d="M24.45,8.87S24,5.81,22.59,5.08a1.41,1.41,0,0,1-.55-.7c-.59-1.3-1-1.34-2.06-3.33C20,1.05,17.17,10.23,24.45,8.87Z"/></clipPath><clipPath id="clip-path-2"><path class="cls-1" d="M30.82,8.87s.5-3.06,1.86-3.79a1.41,1.41,0,0,0,.55-.7c.59-1.3,1-1.34,2.06-3.33C35.29,1.05,38.1,10.23,30.82,8.87Z"/></clipPath><clipPath id="clip-path-3"><path class="cls-2" d="M36.9,10.09c-1.47,1.07-3,5.24-4.6,6.06l-.1.05a6.1,6.1,0,1,0-9.12,0l-.1-.05c-1.58-.82-3.14-5-4.6-6.06-2.28-1.67-7.92.6-16.74,5.91,0,0,7.73-.47,7.73,5.31,0,0,5.12-1.4,6.27,3a12.71,12.71,0,0,0,.23,2s4.54-2.84,8.26-.73c.78,3.42,3.1,7.51,3.51,7.51s2.73-4.09,3.5-7.51c3.72-2.11,8.26.73,8.26.73a13,13,0,0,0,.23-2c1.15-4.4,6.27-3,6.27-3,0-5.78,7.74-5.31,7.74-5.31C44.82,10.69,39.17,8.42,36.9,10.09Z"/></clipPath><clipPath id="clip-path-4"><path class="cls-3" d="M23.59,9.33a3.62,3.62,0,0,0,1.2,3.22c1,.59,1.73.19,2-.26s-.16-1.62-1.18-2.2S23.85,8.88,23.59,9.33Z"/></clipPath><clipPath id="clip-path-5"><path class="cls-3" d="M31.67,9.33a3.63,3.63,0,0,1-1.21,3.22c-1,.59-1.72.19-2-.26s.16-1.62,1.17-2.2S31.41,8.88,31.67,9.33Z"/></clipPath></defs><g id="Layer_2" data-name="Layer 2"><g id="Murciélago"><path class="cls-4" d="M24.45,8.87S24,5.81,22.59,5.08a1.41,1.41,0,0,1-.55-.7c-.59-1.3-1-1.34-2.06-3.33C20,1.05,17.17,10.23,24.45,8.87Z"/><g class="cls-5"><path class="cls-6" d="M24.84,10.56s-.39-2.42-1.46-3A1.13,1.13,0,0,1,22.94,7c-.43-1-2.06-.21-2.22-1.94a0,0,0,0,0-.09,0C20.39,6.55,20,11.47,24.84,10.56Z"/></g><path class="cls-7" d="M24.45,8.87S24,5.81,22.59,5.08a1.41,1.41,0,0,1-.55-.7c-.59-1.3-1-1.34-2.06-3.33C20,1.05,17.17,10.23,24.45,8.87Z"/><path class="cls-4" d="M30.82,8.87s.5-3.06,1.86-3.79a1.41,1.41,0,0,0,.55-.7c.59-1.3,1-1.34,2.06-3.33C35.29,1.05,38.1,10.23,30.82,8.87Z"/><g class="cls-8"><path class="cls-6" d="M30.43,10.56s.39-2.42,1.46-3A1,1,0,0,0,32.33,7c.43-1,2.07-.21,2.22-1.94a0,0,0,0,1,.09,0C34.88,6.55,35.31,11.47,30.43,10.56Z"/></g><path class="cls-7" d="M30.82,8.87s.5-3.06,1.86-3.79a1.41,1.41,0,0,0,.55-.7c.59-1.3,1-1.34,2.06-3.33C35.29,1.05,38.1,10.23,30.82,8.87Z"/><path class="cls-9" d="M36.9,10.09c-1.47,1.07-3,5.24-4.6,6.06l-.1.05a6.1,6.1,0,1,0-9.12,0l-.1-.05c-1.58-.82-3.14-5-4.6-6.06-2.28-1.67-7.92.6-16.74,5.91,0,0,7.73-.47,7.73,5.31,0,0,5.12-1.4,6.27,3a12.71,12.71,0,0,0,.23,2s4.54-2.84,8.26-.73c.78,3.42,3.1,7.51,3.51,7.51s2.73-4.09,3.5-7.51c3.72-2.11,8.26.73,8.26.73a13,13,0,0,0,.23-2c1.15-4.4,6.27-3,6.27-3,0-5.78,7.74-5.31,7.74-5.31C44.82,10.69,39.17,8.42,36.9,10.09Z"/><g class="cls-10"><path class="cls-11" d="M45.9,21s-.95-7.12-9-11.22"/><path class="cls-11" d="M39.4,25.92s1.49-6.34-2.5-16.18"/><path class="cls-11" d="M9.37,21s1-7.12,9-11.22"/><path class="cls-11" d="M15.87,25.92s-1.48-6.34,2.51-16.18"/><path class="cls-12" d="M24.82,27.41c-.9-3.51-.65-5.9-.06-6.76"/><path d="M24.82,27.41a8,8,0,0,1-1-3.38A7.11,7.11,0,0,1,24,22.25a3,3,0,0,1,.8-1.6,6,6,0,0,0-.16,1.67c0,.55,0,1.11.06,1.66C24.72,25.1,24.85,26.21,24.82,27.41Z"/><path class="cls-12" d="M30.6,27.41c.9-3.51.64-5.9,0-6.76"/><path d="M30.6,27.41c0-1.2.1-2.31.15-3.43,0-.55.06-1.11.07-1.66a6.36,6.36,0,0,0-.17-1.67,2.88,2.88,0,0,1,.8,1.6A6.68,6.68,0,0,1,31.57,24,8,8,0,0,1,30.6,27.41Z"/></g><path class="cls-7" d="M36.9,10.09c-1.47,1.07-3,5.24-4.6,6.06l-.1.05a6.1,6.1,0,1,0-9.12,0l-.1-.05c-1.58-.82-3.14-5-4.6-6.06-2.28-1.67-7.92.6-16.74,5.91,0,0,7.73-.47,7.73,5.31,0,0,5.12-1.4,6.27,3a12.71,12.71,0,0,0,.23,2s4.54-2.84,8.26-.73c.78,3.42,3.1,7.51,3.51,7.51s2.73-4.09,3.5-7.51c3.72-2.11,8.26.73,8.26.73a13,13,0,0,0,.23-2c1.15-4.4,6.27-3,6.27-3,0-5.78,7.74-5.31,7.74-5.31C44.82,10.69,39.17,8.42,36.9,10.09Z"/><path d="M23.59,9.33a3.62,3.62,0,0,0,1.2,3.22c1,.59,1.73.19,2-.26s-.16-1.62-1.18-2.2S23.85,8.88,23.59,9.33Z"/><g class="cls-13"><g class="cls-14"><path class="cls-15" d="M26.61,9.24a2.49,2.49,0,0,1-.3,1.23,2.44,2.44,0,0,1-.85.94,2.37,2.37,0,0,1,.31-1.23A2.42,2.42,0,0,1,26.61,9.24Z"/></g></g><path class="cls-16" d="M23.59,9.33a3.62,3.62,0,0,0,1.2,3.22c1,.59,1.73.19,2-.26s-.16-1.62-1.18-2.2S23.85,8.88,23.59,9.33Z"/><path class="cls-17" d="M28.73,14.16l-.08,0h0a5.44,5.44,0,0,1-2,0h0l-.05,0a4.91,4.91,0,0,1-1.25-.44L25,13.61l.4,1.6.4,1,.4.61V15h2.82v1.84l.39-.61.4-1,.4-1.6-.4.17A5,5,0,0,1,28.73,14.16Z"/><path d="M31.67,9.33a3.63,3.63,0,0,1-1.21,3.22c-1,.59-1.72.19-2-.26s.16-1.62,1.17-2.2S31.41,8.88,31.67,9.33Z"/><g class="cls-18"><g class="cls-14"><path class="cls-15" d="M28.64,9.24a2.37,2.37,0,0,1,.85.94,2.47,2.47,0,0,1,.31,1.23,2.44,2.44,0,0,1-.85-.94A2.5,2.5,0,0,1,28.64,9.24Z"/></g></g><path class="cls-16" d="M31.67,9.33a3.63,3.63,0,0,1-1.21,3.22c-1,.59-1.72.19-2-.26s.16-1.62,1.17-2.2S31.41,8.88,31.67,9.33Z"/></g></g></svg>