<svg xmlns="http://www.w3.org/2000/svg" xmlns:xlink="http://www.w3.org/1999/xlink" viewBox="0 0 32.81 44.81"><defs><style>.cls-1,.cls-5{stroke:#0a0a0a;}.cls-1,.cls-5,.cls-6,.cls-7{stroke-miterlimit:10;stroke-width:0.81px;}.cls-1,.cls-2{fill:url(#linear-gradient);}.cls-3{clip-path:url(#clip-path);}.cls-4{fill:#3d3d3d;}.cls-5,.cls-7{fill:none;}.cls-6{fill:#090a0a;}.cls-6,.cls-7{stroke:#000;}.cls-8{fill:#0a0a0a;}</style><linearGradient id="linear-gradient" x1="16.42" y1="36.53" x2="16.35" y2="5.33" gradientUnits="userSpaceOnUse"><stop offset="0" stop-color="#b3b3b3"/><stop offset="0.1" stop-color="#c5c5c5"/><stop offset="0.26" stop-color="#d9d9d9"/><stop offset="0.43" stop-color="#e7e7e7"/><stop offset="0.64" stop-color="#efefef"/><stop offset="1" stop-color="#f2f2f2"/></linearGradient><clipPath id="clip-path"><path class="cls-1" d="M16.41.41A15.8,15.8,0,0,0,.41,16v25.6a2.74,2.74,0,0,0,2.66,2.8,2.74,2.74,0,0,0,2.67-2.8,2.74,2.74,0,0,0,2.67,2.8,2.74,2.74,0,0,0,2.66-2.8,2.74,2.74,0,0,0,2.67,2.8,2.74,2.74,0,0,0,2.67-2.8,2.67,2.67,0,1,0,5.33,0,2.67,2.67,0,1,0,5.33,0,2.67,2.67,0,1,0,5.34,0V16A15.81,15.81,0,0,0,16.41.41Z"/></clipPath></defs><g id="Layer_2" data-name="Layer 2"><g id="Fantasma"><path class="cls-2" d="M16.41.41A15.8,15.8,0,0,0,.41,16v25.6a2.74,2.74,0,0,0,2.66,2.8,2.74,2.74,0,0,0,2.67-2.8,2.74,2.74,0,0,0,2.67,2.8,2.74,2.74,0,0,0,2.66-2.8,2.74,2.74,0,0,0,2.67,2.8,2.74,2.74,0,0,0,2.67-2.8,2.67,2.67,0,1,0,5.33,0,2.67,2.67,0,1,0,5.33,0,2.67,2.67,0,1,0,5.34,0V16A15.81,15.81,0,0,0,16.41.41Z"/><g class="cls-3"><path class="cls-4" d="M13.71,18.54a5.3,5.3,0,0,1-1.22,2.6,6.29,6.29,0,0,1-2.39,1.72,7,7,0,0,1-2.87.58,4.11,4.11,0,0,1-1.46-.28,1.71,1.71,0,0,1-1-1,1.74,1.74,0,0,0,1.13.65,4.87,4.87,0,0,0,1.32,0,8.9,8.9,0,0,0,2.58-.7A7.72,7.72,0,0,0,13.71,18.54Z"/><path class="cls-4" d="M19.17,18.54a7.68,7.68,0,0,0,3.92,3.57,8.92,8.92,0,0,0,2.57.7,4.86,4.86,0,0,0,1.32,0,1.76,1.76,0,0,0,1.14-.65,1.76,1.76,0,0,1-1,1,4.11,4.11,0,0,1-1.46.28,7.08,7.08,0,0,1-2.87-.58,6.25,6.25,0,0,1-2.38-1.72A5.21,5.21,0,0,1,19.17,18.54Z"/><path class="cls-4" d="M21.4,30.83a3.78,3.78,0,0,1-1.33,3.45,5.7,5.7,0,0,1-3.66,1.17,5.76,5.76,0,0,1-3.68-1.17,3.8,3.8,0,0,1-1.32-3.45,4.28,4.28,0,0,0,1.8,2.82,6,6,0,0,0,3.2.79,6.07,6.07,0,0,0,3.19-.78A4.29,4.29,0,0,0,21.4,30.83Z"/></g><path class="cls-5" d="M16.41.41A15.8,15.8,0,0,0,.41,16v25.6a2.74,2.74,0,0,0,2.66,2.8,2.74,2.74,0,0,0,2.67-2.8,2.74,2.74,0,0,0,2.67,2.8,2.74,2.74,0,0,0,2.66-2.8,2.74,2.74,0,0,0,2.67,2.8,2.74,2.74,0,0,0,2.67-2.8,2.67,2.67,0,1,0,5.33,0,2.67,2.67,0,1,0,5.33,0,2.67,2.67,0,1,0,5.34,0V16A15.81,15.81,0,0,0,16.41.41Z"/><path class="cls-6" d="M13.17,14.59c-1.57,3.49-4.58,5.85-6.72,5.27s1.18-4.55,2.75-8,.81-5.19,3-4.61S14.74,11.1,13.17,14.59Z"/><path class="cls-7" d="M13.58,17.92a6.92,6.92,0,0,1-3.81,3.9c-2.37,1-4.75.9-5.31-.31"/><path class="cls-6" d="M19.64,14.59c1.57,3.49,4.58,5.85,6.72,5.27s-1.18-4.55-2.75-8-.81-5.19-2.95-4.61S18.07,11.1,19.64,14.59Z"/><path class="cls-7" d="M19.23,17.92A6.92,6.92,0,0,0,23,21.82c2.37,1,4.75.9,5.31-.31"/><path class="cls-6" d="M19.69,25.93c-.72,1.82-.57,5.88-3.28,5.88s-2.57-4.06-3.29-5.88c-1.23-3.12.57-3.52,3.29-3.52S20.92,22.81,19.69,25.93Z"/><path class="cls-7" d="M21.4,30.41c0,1.36-.86,4.11-5,4.11s-5-2.75-5-4.11"/><path class="cls-8" d="M5.74,43.21a4.81,4.81,0,0,1-.41-2,4.6,4.6,0,0,1,.41-2,4.59,4.59,0,0,1,.4,2A4.64,4.64,0,0,1,5.74,43.21Z"/><path class="cls-8" d="M11.07,43.21a4.64,4.64,0,0,1-.4-2,4.59,4.59,0,0,1,.4-2,4.6,4.6,0,0,1,.41,2A4.81,4.81,0,0,1,11.07,43.21Z"/><path class="cls-8" d="M16.41,43.21a4.66,4.66,0,0,1-.41-2,4.46,4.46,0,0,1,.41-2,4.59,4.59,0,0,1,.4,2A4.8,4.8,0,0,1,16.41,43.21Z"/><path class="cls-8" d="M21.74,43.21a4.81,4.81,0,0,1-.41-2,4.6,4.6,0,0,1,.41-2,4.59,4.59,0,0,1,.4,2A4.64,4.64,0,0,1,21.74,43.21Z"/><path class="cls-8" d="M27.07,43.21a4.64,4.64,0,0,1-.4-2,4.59,4.59,0,0,1,.4-2,4.6,4.6,0,0,1,.41,2A4.81,4.81,0,0,1,27.07,43.21Z"/></g></g></svg>