<svg xmlns="http://www.w3.org/2000/svg" xmlns:xlink="http://www.w3.org/1999/xlink" viewBox="0 0 67.13 68.82"><defs><style>.cls-1,.cls-4{fill:#f07620;}.cls-1,.cls-9{stroke:#210e04;}.cls-1,.cls-11,.cls-14,.cls-15,.cls-2,.cls-23,.cls-3,.cls-7,.cls-9{stroke-miterlimit:10;}.cls-1,.cls-15,.cls-2,.cls-23,.cls-3,.cls-7,.cls-9{stroke-width:1.06px;}.cls-12,.cls-2{fill:#c13a10;}.cls-15,.cls-2{stroke:#1e0602;}.cls-19,.cls-3{fill:#367f2e;}.cls-23,.cls-3{stroke:#000;}.cls-5{clip-path:url(#clip-path);}.cls-6{fill:#b24718;}.cls-11,.cls-15,.cls-23,.cls-7,.cls-9{fill:none;}.cls-11,.cls-7{stroke:#682a1c;}.cls-14,.cls-8{fill:#eda616;}.cls-10{clip-path:url(#clip-path-2);}.cls-13{clip-path:url(#clip-path-3);}.cls-14{stroke:#eda616;stroke-width:0.53px;}.cls-16{clip-path:url(#clip-path-4);}.cls-17{clip-path:url(#clip-path-5);}.cls-18{clip-path:url(#clip-path-6);}.cls-20{clip-path:url(#clip-path-7);}.cls-21{fill:#3a601d;}.cls-22{fill:#131e03;}</style><clipPath id="clip-path" transform="translate(0 3.03)"><path class="cls-1" d="M38.27,4.08l.24.1a2,2,0,0,0,1.38.05l2.34-.74a2,2,0,0,1,1.49.1l2.14,1S66.53,7,64.37,36.89c0,0,0,16.47-14.06,23.67,0,0-.88.54-6.34,2.21-.68.2-5.56,1.21-5.56.53L39.49,41l-3.87-1.48,1.71-22.2-5.17-.46L35.64,5.26A2,2,0,0,1,38.27,4.08Z"/></clipPath><clipPath id="clip-path-2" transform="translate(0 3.03)"><path class="cls-1" d="M27.78,6l-4-.39a.9.9,0,0,0-.91.5l-.09.18a.91.91,0,0,1-1.09.46l-3.07-.93a2.27,2.27,0,0,0-1.82.23C13.27,8.18.51,17,.53,33.85a30.81,30.81,0,0,0,18.5,28s9.13,3.28,16.1,2.54c.9-.09,2.62-.89,2.51-1.75L34,42.33l-3.85-1.19.6-20.91-5.4-.13,3.22-13A.89.89,0,0,0,27.78,6Z"/></clipPath><clipPath id="clip-path-3" transform="translate(0 3.03)"><path class="cls-2" d="M57.59,19.92c1.73,3.93-3.38,5.25-7.52,6.9s-5.72,3-7.44-.95S39.85,11.92,44,10.28,55.87,16,57.59,19.92Z"/></clipPath><clipPath id="clip-path-4" transform="translate(0 3.03)"><path class="cls-2" d="M25.25,28.4c-.15,4.26-5.38,3.43-9.86,3.29S8.88,32.14,9,27.88s3.59-13.79,8.06-13.65S25.4,24.14,25.25,28.4Z"/></clipPath><clipPath id="clip-path-5" transform="translate(0 3.03)"><polygon class="cls-2" points="5.24 33.29 8.13 37.92 12.74 35.6 17.96 43.22 24.4 37.08 30.16 48.37 34.09 43.07 35.59 53.86 33.33 50.28 30.16 55.49 24.3 44.39 18.37 51.07 12.24 40.72 8.01 44.14 5.24 33.29"/></clipPath><clipPath id="clip-path-6" transform="translate(0 3.03)"><polygon class="cls-2" points="39.06 53.77 42.12 49.57 45.61 50.01 47.15 41.9 53.81 44.96 54.95 34.09 59.96 37.49 59.39 25.15 56.79 31.55 52.58 27.8 51.7 39.17 44.85 34.86 43.52 45.63 39.62 42.46 39.06 53.77"/></clipPath><clipPath id="clip-path-7" transform="translate(0 3.03)"><path class="cls-3" d="M24.55,3.58h0a22.62,22.62,0,0,0,4.78-2,.12.12,0,0,0,0-.22L15.62.53,5.08,3.36S3.68,4.41,5,5.42L16,3.17C17.71,3.33,17.41,3.14,24.55,3.58Z"/></clipPath></defs><g id="Layer_2" data-name="Layer 2"><g id="Calabaza"><g id="Lineart"><g id="Layer_8" data-name="Layer 8"><path class="cls-4" d="M38.27,4.08l.24.1a2,2,0,0,0,1.38.05l2.34-.74a2,2,0,0,1,1.49.1l2.14,1S66.53,7,64.37,36.89c0,0,0,16.47-14.06,23.67,0,0-.88.54-6.34,2.21-.68.2-5.56,1.21-5.56.53L39.49,41l-3.87-1.48,1.71-22.2-5.17-.46L35.64,5.26A2,2,0,0,1,38.27,4.08Z" transform="translate(0 3.03)"/><g class="cls-5"><path class="cls-6" d="M38.18,56.38S36,65.44,41.66,63.65c16.22-5.15,27.86-25.42,22.71-37-.61-1.39-1.91,3.72-1.91,5.22v2.82a20.37,20.37,0,0,1-.05,2.47,24,24,0,0,1-.84,3.52,11,11,0,0,1-.74,2c-.13.25-.27.49-.42.73a5.77,5.77,0,0,1-.41.72,4,4,0,0,1-1.2.95.51.51,0,0,1-.53,0,.72.72,0,0,1-.25-.12c-.11-.09-.14-.27-.23-.38s-.13-.13-.18-.21,0-.2-.15-.29c-.25-.24-.29.12-.37.31-.32.78-.68,1.54-1,2.32-.23.59-.5,1.18-.77,1.77a10.27,10.27,0,0,0-.48,1.07,8.84,8.84,0,0,1-.48,1.24,4.89,4.89,0,0,1-1.69,1.84,8.18,8.18,0,0,1-2.36,1,5.2,5.2,0,0,1-1.87.3,3.35,3.35,0,0,1-1.15-.4c-.13-.07-.29-.12-.42-.2a1.42,1.42,0,0,1-.33-.36c-.08-.1-.23-.3-.38-.29s-.59.48-.73.67-.59.64-.9,1c-.15.16-.28.34-.43.49a2.33,2.33,0,0,1-.35.27c-.07.06-.13.14-.2.2a5.74,5.74,0,0,1-.5.36,5.73,5.73,0,0,1-.92.58c-.2.09-.43.13-.64.21a2.21,2.21,0,0,1-.42.12c-.19,0-.42.07-.61.08a3.64,3.64,0,0,1-.66,0,8.66,8.66,0,0,1-1.64-.2" transform="translate(0 3.03)"/><path class="cls-6" d="M36.65,56.59c-.57,2.45-1.22,7.33,2.14,8A7.86,7.86,0,0,0,42.87,64a34.25,34.25,0,0,0,4.56-2,36.57,36.57,0,0,0,8-5.82A39,39,0,0,0,65.76,40.45a25.07,25.07,0,0,0,1.37-8.23,16.38,16.38,0,0,0-.48-3.82c-.2-.83-.46-2.46-1.38-2.78a2.77,2.77,0,0,0-3.22,1.65,14.48,14.48,0,0,0-1,4.05c-.27,2.13.17,4.32-.17,6.44a25.79,25.79,0,0,1-.91,3.48c-.3,1-.89,2.95-2,3.32l1.53-.22c-.35-.09-.54-.9-1-1.06a2.59,2.59,0,0,0-2.64.71,17.22,17.22,0,0,0-1.18,2.71c-.51,1.23-1.07,2.43-1.55,3.67a4,4,0,0,1-2.57,2.4,2.38,2.38,0,0,1-1.83.1c-.43-.18-.56-.45-.9-.71-1.83-1.38-3.61,1-4.69,2.11s-2.42,2-3.73,1.4a2.59,2.59,0,0,0-2.16.31c-.38.23-1,.81-.29,1.11a7.78,7.78,0,0,0,5.27-.17A8.47,8.47,0,0,0,45,55.24a12.23,12.23,0,0,0,1.08-1.08c.21-.22,1.25-1.16.69-.95L45,53.34c.24.13.39.44.62.6a4.82,4.82,0,0,0,.88.44,4.64,4.64,0,0,0,2.15.31,11.34,11.34,0,0,0,5.16-1.78,7.15,7.15,0,0,0,2.7-3.77c.36-.9.81-1.77,1.18-2.66a16.12,16.12,0,0,1,1-2.49L56,44.7c.22.08.37.66.55.82a2.07,2.07,0,0,0,1.17.41A4.55,4.55,0,0,0,61,44.57c1.78-1.65,2.54-4.92,2.91-7.22s-.12-4.54.22-6.78a19.42,19.42,0,0,1,.55-2.4A8.82,8.82,0,0,1,65,27c.08-.17.33-.52.23-.45l-1,.5.07,0-1.14.08c-.58-.07-.21-.17-.13.31a3.61,3.61,0,0,0,.17.46c.14.39.26.78.37,1.18A16.21,16.21,0,0,1,64,31.86a20.58,20.58,0,0,1-.37,5.48,32.7,32.7,0,0,1-4.9,11.58,38.13,38.13,0,0,1-9,9.65A29.45,29.45,0,0,1,43.83,62c-1,.45-2.79,1.63-3.75.56-1.37-1.52-.8-4.63-.38-6.43.25-1-2.81-.57-3.05.42Z" transform="translate(0 3.03)"/><path class="cls-7" d="M34.05,7.43C42.42,17.55,47.6,31.55,46.67,44.7A43.46,43.46,0,0,1,41,63.09" transform="translate(0 3.03)"/><path class="cls-7" d="M31.52,0s32,24.16,21.69,58.48" transform="translate(0 3.03)"/><path class="cls-7" d="M43.61,3.13c11.2,9,19.69,22.4,20.72,37" transform="translate(0 3.03)"/><path class="cls-8" d="M35.6,7a10.56,10.56,0,0,1,2.48,1.92,11.56,11.56,0,0,1,1,1.2,8.1,8.1,0,0,1,.82,1.35c-.4-.35-.76-.72-1.13-1.08l-1.08-1.1C37,8.49,36.27,7.77,35.6,7Z" transform="translate(0 3.03)"/><path class="cls-8" d="M41.42,3.87a10.19,10.19,0,0,1,1.73,1.07,15.22,15.22,0,0,1,1.56,1.31,13.82,13.82,0,0,1,2.5,3.2L45.77,8l-1.43-1.4C43.39,5.7,42.41,4.81,41.42,3.87Z" transform="translate(0 3.03)"/><path class="cls-8" d="M46.69,11.8a11.32,11.32,0,0,1,1.52,1.33,14.7,14.7,0,0,1,1.3,1.54,13.1,13.1,0,0,1,1.91,3.55l-1.17-1.63L49.09,15C48.31,13.92,47.5,12.88,46.69,11.8Z" transform="translate(0 3.03)"/><path class="cls-8" d="M48.81,6.56a10.65,10.65,0,0,1,1.61,1.22,16.2,16.2,0,0,1,1.42,1.45A13.24,13.24,0,0,1,54,12.65L52.72,11.1,51.43,9.57C50.58,8.56,49.69,7.58,48.81,6.56Z" transform="translate(0 3.03)"/><path class="cls-8" d="M54.51,12.26a11.39,11.39,0,0,1,1.57,1.28A15.9,15.9,0,0,1,57.43,15a13.12,13.12,0,0,1,2,3.49l-1.22-1.59L57,15.37C56.21,14.32,55.36,13.31,54.51,12.26Z" transform="translate(0 3.03)"/></g><path class="cls-9" d="M38.27,4.08l.24.1a2,2,0,0,0,1.38.05l2.34-.74a2,2,0,0,1,1.49.1l2.14,1S66.53,7,64.37,36.89c0,0,0,16.47-14.06,23.67,0,0-.88.54-6.34,2.21-.68.2-5.56,1.21-5.56.53L39.49,41l-3.87-1.48,1.71-22.2-5.17-.46L35.64,5.26A2,2,0,0,1,38.27,4.08Z" transform="translate(0 3.03)"/><path class="cls-4" d="M27.78,6l-4-.39a.9.9,0,0,0-.91.5l-.09.18a.91.91,0,0,1-1.09.46l-3.07-.93a2.27,2.27,0,0,0-1.82.23C13.27,8.18.51,17,.53,33.85a30.81,30.81,0,0,0,18.5,28s9.13,3.28,16.1,2.54c.9-.09,2.62-.89,2.51-1.75L34,42.33l-3.85-1.19.6-20.91-5.4-.13,3.22-13A.89.89,0,0,0,27.78,6Z" transform="translate(0 3.03)"/><g class="cls-10"><path class="cls-6" d="M39.09,60.84c-.22-.91-.48-1.82-.77-2.71a3.71,3.71,0,0,1-.23.32,3.28,3.28,0,0,1-.51.59,3.51,3.51,0,0,1-1.1.61,3.31,3.31,0,0,1-1.71.14,7.35,7.35,0,0,1-1-.36,4.92,4.92,0,0,0-1-.5c-.07.09,0,.32,0,.45a2.47,2.47,0,0,1-.23.46,1.36,1.36,0,0,1-.56.6,3,3,0,0,1-1.65,0,9.38,9.38,0,0,1-1.47-.31L27,59.65a9.28,9.28,0,0,0-.92-.15c-.37-.06-.74-.24-1.12-.31s-.68-.18-1-.28a6.25,6.25,0,0,1-.93-.29c-.16-.07-.32-.18-.48-.25a4.65,4.65,0,0,1-.52-.2,6.25,6.25,0,0,0-1-.49A6.09,6.09,0,0,1,20,57a6.84,6.84,0,0,1-.8-.52,3.78,3.78,0,0,1-.61-.59c-.12-.15-.2-.32-.32-.46a7.57,7.57,0,0,1-.61-.66,3.29,3.29,0,0,1-.5-.79c-.29.45-.32,1.35-.88,1.51a3.88,3.88,0,0,1-.48,0,1.77,1.77,0,0,1-.33.08c-.12,0-.24,0-.37,0a2.27,2.27,0,0,1-.45,0,8.93,8.93,0,0,1-.9-.17l-.35,0c-.22,0-.43-.13-.64-.17-.52-.09-1-.3-1.53-.42a5.76,5.76,0,0,1-2.42-1.48,2.05,2.05,0,0,1-.39-.44,1.81,1.81,0,0,0-.28-.33c-.09-.09-.19-.15-.27-.24A2.11,2.11,0,0,0,7.62,52a1.83,1.83,0,0,1-.55-.7,6,6,0,0,1-.32-.61c-.09-.24-.23-.45-.33-.68s-.06-.33-.13-.47A6.19,6.19,0,0,1,6,48.94c-.07-.23-.13-.46-.19-.69-.12-.4-.29-.75-.4-1.15a5.12,5.12,0,0,1-.25-.93,2.25,2.25,0,0,0-.06-.36c0-.14,0-.3-.07-.44a1.16,1.16,0,0,0-.48-.5,1.15,1.15,0,0,0-.39-.16c-.1,0-.1.09-.15.19a1.13,1.13,0,0,1-.49.48,1.87,1.87,0,0,1-.78,0l-.15-.05c.12.51.25,1,.38,1.53,0,.14,0,.27.06.4a2.8,2.8,0,0,1,.82,1.36,12.11,12.11,0,0,0,1.47,3.21,2.66,2.66,0,0,1,1.28.75,16.76,16.76,0,0,1,3.36,4.65,2.65,2.65,0,0,1,1.28.06,14.68,14.68,0,0,1,6.9,4.29,3.58,3.58,0,0,1,.61,1c5.32.75,10.65,1.45,15.93,2.51a19.72,19.72,0,0,1,3.83-1.25l.45-.06c0-.57-.1-1.16-.11-1.74A2.69,2.69,0,0,1,39.09,60.84Z" transform="translate(0 3.03)"/><path class="cls-6" d="M40.7,60.41c-.23-.91-.48-1.82-.77-2.71s-2.87.24-3.2.7c-.51.71-.49.84-1.14.58s-1-.5-1.49-.69c-.68-.25-2.83.2-2.92,1.07,0,0-.17.82-.23.76s1.92-.11.53-.32a21.3,21.3,0,0,1-2.23-.54c-1.43-.39-2.89-.63-4.31-1.07-2.37-.75-5-2.32-6.17-4.61-.41-.81-2.89.1-3.2.71-.07.13-.5,1.14-.23,1L17,54.85c-.43,0-.89.16-1.31.18.72,0,.31-.1-.15-.16-.24,0-.49-.08-.73-.13a10.42,10.42,0,0,1-3.14-1A9.1,9.1,0,0,1,8,49.49c-.34-.87-.65-1.74-1-2.63-.24-.71-.2-1.8-.74-2.33a2.22,2.22,0,0,0-2.11-.4,3.69,3.69,0,0,0-1.35.54c-.25.18-.37.47-.6.63l1.53-.55.1,0C3.38,44.56.75,45,1,45.8a14.06,14.06,0,0,0,.41,1.73c.17.44.54.77.74,1.23.46,1.09.69,2.67,1.58,3.54.3.29.75.36,1.1.62A10,10,0,0,1,6,54.22,13.73,13.73,0,0,1,8.32,57.7c.13.3.67.28.92.25,1.19-.14,2.71.74,3.71,1.3a14.33,14.33,0,0,1,2.7,1.94A7.47,7.47,0,0,1,17,62.7c.3.5.37.55,1,.63l4.35.61c2.89.42,5.78.85,8.65,1.37a9.42,9.42,0,0,0,3.64.4c1.4-.3,2.63-1.07,4.07-1.26.39,0,2-.41,1.9-1.06a6,6,0,0,1,.14-2.82c.24-.62-2.85-.31-3.18.54a6.7,6.7,0,0,0-.18,3.15l1.9-1.06a21,21,0,0,0-5.51,1.69l2.26-.4c-5.37-1.07-10.8-1.79-16.21-2.55l.57.24a10,10,0,0,0-4.19-3.94c-1.65-1-3.59-1.87-5.52-1.65l.92.25a13.25,13.25,0,0,0-4.48-5.45c-1-.69-1.29-2.25-1.69-3.33A8.72,8.72,0,0,0,4.72,47a8.54,8.54,0,0,1-.55-2L1.24,46a4.45,4.45,0,0,0,2.6-.17A3.61,3.61,0,0,0,5,45.26c.1-.08,1-.87.37-.48l-2.56.57c.81.24.78,1.66,1,2.37.34,1,.67,2,1.07,2.92a9.4,9.4,0,0,0,3.72,4.24,12.23,12.23,0,0,0,6.16,1.43,6.77,6.77,0,0,0,.7-.11c-.37,0,.29,0,.31,0a4.73,4.73,0,0,0,1.63-.53c.84-.46.92-1.11,1.33-1.91l-3.2.7c1.67,3.33,5.63,4.84,9,5.65,2.59.62,9.33,2.88,9.81-1.59l-2.92,1.07a18.48,18.48,0,0,0,2,.86,5.74,5.74,0,0,0,2.54-.1,6,6,0,0,0,3.92-2.48l-3.2.71c.29.89.54,1.8.77,2.71C37.67,62,40.9,61.19,40.7,60.41Z" transform="translate(0 3.03)"/><path class="cls-7" d="M28.81,8.18C19.47,26.27,20.47,50.27,37,64.37" transform="translate(0 3.03)"/><path class="cls-11" d="M29.48-2.63C14.34,9.4,9.36,31,15,49.1a45.32,45.32,0,0,0,7.2,14" transform="translate(0 3.03)"/><path class="cls-7" d="M16.42,4.2c-12,15.07-14.95,36.07-5.78,52.64" transform="translate(0 3.03)"/><path class="cls-8" d="M25.62,7.08c-.68,1.15-1.37,2.27-2,3.41l-1,1.72-1,1.74a12.89,12.89,0,0,1,1.49-3.72,14.31,14.31,0,0,1,1.12-1.67A10,10,0,0,1,25.62,7.08Z" transform="translate(0 3.03)"/><path class="cls-8" d="M18.05,7.08c-.69,1.15-1.37,2.27-2,3.41l-1,1.72-1,1.74a12.89,12.89,0,0,1,1.49-3.72,14.31,14.31,0,0,1,1.12-1.67A10,10,0,0,1,18.05,7.08Z" transform="translate(0 3.03)"/><path class="cls-8" d="M8,16.18c-.56,1.21-1.13,2.38-1.66,3.58l-.8,1.8-.78,1.82a12.61,12.61,0,0,1,1.1-3.84,14.86,14.86,0,0,1,.94-1.76A11,11,0,0,1,8,16.18Z" transform="translate(0 3.03)"/><path class="cls-8" d="M15.26,16.08c-.48,1.24-1,2.45-1.4,3.68l-.66,1.85-.65,1.87a12.74,12.74,0,0,1,.81-3.9,14.88,14.88,0,0,1,.82-1.82A9.61,9.61,0,0,1,15.26,16.08Z" transform="translate(0 3.03)"/></g><path class="cls-9" d="M27.78,6l-4-.39a.9.9,0,0,0-.91.5l-.09.18a.91.91,0,0,1-1.09.46l-3.07-.93a2.27,2.27,0,0,0-1.82.23C13.27,8.18.51,17,.53,33.85a30.81,30.81,0,0,0,18.5,28s9.13,3.28,16.1,2.54c.9-.09,2.62-.89,2.51-1.75L34,42.33l-3.85-1.19.6-20.91-5.4-.13,3.22-13A.89.89,0,0,0,27.78,6Z" transform="translate(0 3.03)"/></g><g id="Layer_7" data-name="Layer 7"><path class="cls-12" d="M57.59,19.92c1.73,3.93-3.38,5.25-7.52,6.9s-5.72,3-7.44-.95S39.85,11.92,44,10.28,55.87,16,57.59,19.92Z" transform="translate(0 3.03)"/><g class="cls-13"><path class="cls-14" d="M51.45,20.46c1.09,2.64-2.21,3.4-4.88,4.39s-3.7,1.84-4.78-.8-1.69-9.28,1-10.27S50.37,17.83,51.45,20.46Z" transform="translate(0 3.03)"/></g><path class="cls-15" d="M57.59,19.92c1.73,3.93-3.38,5.25-7.52,6.9s-5.72,3-7.44-.95S39.85,11.92,44,10.28,55.87,16,57.59,19.92Z" transform="translate(0 3.03)"/><path class="cls-12" d="M25.25,28.4c-.15,4.26-5.38,3.43-9.86,3.29S8.88,32.14,9,27.88s3.59-13.79,8.06-13.65S25.4,24.14,25.25,28.4Z" transform="translate(0 3.03)"/><g class="cls-16"><path class="cls-14" d="M25.2,27.41c-.1,2.83-3.44,2.29-6.3,2.19s-4.17.31-4.07-2.52S17.14,17.91,20,18,25.31,24.58,25.2,27.41Z" transform="translate(0 3.03)"/></g><path class="cls-15" d="M25.25,28.4c-.15,4.26-5.38,3.43-9.86,3.29S8.88,32.14,9,27.88s3.59-13.79,8.06-13.65S25.4,24.14,25.25,28.4Z" transform="translate(0 3.03)"/><polygon class="cls-12" points="5.24 36.31 8.13 40.94 12.74 38.63 17.96 46.24 24.4 40.1 30.16 51.39 34.09 46.09 35.59 56.88 33.33 53.31 30.16 58.52 24.3 47.42 18.37 54.09 12.24 43.74 8.01 47.16 5.24 36.31"/><g class="cls-17"><polygon class="cls-14" points="6.51 35.85 9.29 39.61 13.72 37.73 18.75 43.91 24.95 38.92 30.49 48.09 34.27 43.78 34.63 52.78 33.54 49.64 30.49 53.87 24.85 44.86 18.06 50.28 12.17 41.88 8.09 43.63 6.51 35.85"/></g><polygon class="cls-15" points="5.24 36.31 8.13 40.94 12.74 38.63 17.96 46.24 24.4 40.1 30.16 51.39 34.09 46.09 35.59 56.88 33.33 53.31 30.16 58.52 24.3 47.42 18.37 54.09 12.24 43.74 8.01 47.16 5.24 36.31"/><polygon class="cls-12" points="39.06 56.8 42.12 52.6 45.61 53.04 47.15 44.92 53.81 47.98 54.95 37.12 59.96 40.52 59.39 28.18 56.79 34.58 52.58 30.83 51.7 42.19 44.85 37.88 43.52 48.66 39.62 45.49 39.06 56.8"/><g class="cls-18"><polygon class="cls-14" points="39.93 52.76 41.12 49.69 44.71 50.94 46.65 41.74 52.55 45.08 53.95 35.08 58.35 37.72 58.26 27.59 55.7 32.94 52.02 29.98 50.85 39.35 44.82 36.02 43.25 44.92 39.85 42.44 39.93 52.76"/></g><polygon class="cls-15" points="39.06 56.8 42.12 52.6 45.61 53.04 47.15 44.92 53.81 47.98 54.95 37.12 59.96 40.52 59.39 28.18 56.79 34.58 52.58 30.83 51.7 42.19 44.85 37.88 43.52 48.66 39.62 45.49 39.06 56.8"/></g><path class="cls-19" d="M24.55,3.58h0a22.62,22.62,0,0,0,4.78-2,.12.12,0,0,0,0-.22L15.62.53,5.08,3.36S3.68,4.41,5,5.42L16,3.17C17.71,3.33,17.41,3.14,24.55,3.58Z" transform="translate(0 3.03)"/><g class="cls-20"><path class="cls-21" d="M25.42,2.71a40.47,40.47,0,0,1-5.5-.4A16.29,16.29,0,0,0,17,2a15.31,15.31,0,0,0-2.82.63C10.82,3.39,7,3.84,3.62,4.9c-.45.14-1.5.54-1.32,1.19s1.31.5,1.73.37c3.35-1,6.85-1.41,10.24-2.24a19.79,19.79,0,0,1,2.27-.56c-.52.06-.2.07.13.12l.73.11,1.32.18a44.25,44.25,0,0,0,5.51.4,2.42,2.42,0,0,0,2-.84c.35-.61-.3-.92-.83-.92Z" transform="translate(0 3.03)"/><path class="cls-22" d="M26,2.52c-1.64-.16-3.24-.41-4.88-.57a10.21,10.21,0,0,1,2.47,0A12.38,12.38,0,0,1,26,2.52Z" transform="translate(0 3.03)"/><path class="cls-22" d="M20.5,2.09c-1.65,0-3.26-.19-4.91-.25a9.74,9.74,0,0,1,2.47-.14A12.54,12.54,0,0,1,20.5,2.09Z" transform="translate(0 3.03)"/><path class="cls-22" d="M13.93,2.43c-1.59.43-3.17.76-4.75,1.18a10,10,0,0,1,2.31-.85A12.67,12.67,0,0,1,13.93,2.43Z" transform="translate(0 3.03)"/><path class="cls-22" d="M8.36,3.7c-1.59.42-3.17.75-4.76,1.18A9.64,9.64,0,0,1,5.92,4,12.46,12.46,0,0,1,8.36,3.7Z" transform="translate(0 3.03)"/></g><path class="cls-23" d="M24.55,3.58h0a22.62,22.62,0,0,0,4.78-2,.12.12,0,0,0,0-.22L15.62.53,5.08,3.36S3.68,4.41,5,5.42L16,3.17C17.71,3.33,17.41,3.14,24.55,3.58Z" transform="translate(0 3.03)"/></g></g></g></svg>