<svg xmlns="http://www.w3.org/2000/svg" xmlns:xlink="http://www.w3.org/1999/xlink" viewBox="0 0 38.86 43.94"><defs><style>.cls-1,.cls-2,.cls-7{fill:#563517;}.cls-1,.cls-10,.cls-13,.cls-19,.cls-2,.cls-21,.cls-24,.cls-29,.cls-3,.cls-4,.cls-5,.cls-6{stroke:#190b02;stroke-miterlimit:10;}.cls-1,.cls-10,.cls-6{stroke-width:0.72px;}.cls-19,.cls-2,.cls-21,.cls-4,.cls-5{stroke-width:0.86px;}.cls-12,.cls-3,.cls-4{fill:#684d29;}.cls-29,.cls-3{stroke-width:0.52px;}.cls-5{fill:#281407;}.cls-21,.cls-30,.cls-6{fill:#020100;}.cls-8{clip-path:url(#clip-path);}.cls-9{fill:#190b02;}.cls-10,.cls-13,.cls-19,.cls-24,.cls-29{fill:none;}.cls-11{clip-path:url(#clip-path-2);}.cls-13{stroke-width:0.14px;}.cls-14{clip-path:url(#clip-path-3);}.cls-15{clip-path:url(#clip-path-4);}.cls-16{clip-path:url(#clip-path-5);}.cls-17{opacity:0.8;}.cls-18{fill:#0c0501;}.cls-20{clip-path:url(#clip-path-6);}.cls-22{clip-path:url(#clip-path-7);}.cls-23{clip-path:url(#clip-path-8);}.cls-24{stroke-width:0.17px;}.cls-25{clip-path:url(#clip-path-9);}.cls-26{clip-path:url(#clip-path-10);}.cls-27{clip-path:url(#clip-path-11);}.cls-28{clip-path:url(#clip-path-12);}.cls-31{fill:#ddccbc;}</style><clipPath id="clip-path" transform="translate(-0.6 -1.14)"><path class="cls-1" d="M30.22,5,22.1,4A.85.85,0,0,1,21.38,3l.09-.73a.83.83,0,0,1,.91-.72l8.12,1a1.2,1.2,0,0,1,1,1.34h0A1.19,1.19,0,0,1,30.22,5Z"/></clipPath><clipPath id="clip-path-2" transform="translate(-0.6 -1.14)"><path class="cls-1" d="M23.34,3.58,17.28,9.17a.81.81,0,0,1-1.15-.06l-.49-.55a.83.83,0,0,1,.06-1.17L21.75,1.8a1.18,1.18,0,0,1,1.67.09h0A1.21,1.21,0,0,1,23.34,3.58Z"/></clipPath><clipPath id="clip-path-3" transform="translate(-0.6 -1.14)"><path class="cls-1" d="M4.69,28.81,3.48,20.6a.82.82,0,0,0-.93-.7L1.83,20a.84.84,0,0,0-.69.94l1.22,8.22a1.19,1.19,0,0,0,1.34,1h0A1.2,1.2,0,0,0,4.69,28.81Z"/></clipPath><clipPath id="clip-path-4" transform="translate(-0.6 -1.14)"><path class="cls-1" d="M3.15,21.87l5.33-6.3a.85.85,0,0,0-.08-1.18l-.55-.48A.83.83,0,0,0,6.69,14L1.36,20.31A1.21,1.21,0,0,0,1.49,22h0A1.17,1.17,0,0,0,3.15,21.87Z"/></clipPath><clipPath id="clip-path-5" transform="translate(-0.6 -1.14)"><path class="cls-4" d="M18.75,23.68h0c-.93.56-2.48,0-3.43-1.21l-1.83-3.23c-1-1.23-1.37-2.34-.44-2.91h0c.93-.56,2.47,0,3.42,1.21l2.24,2.88C19.66,21.65,19.68,23.11,18.75,23.68Z"/></clipPath><clipPath id="clip-path-6" transform="translate(-0.6 -1.14)"><path class="cls-4" d="M22.46,20.49h0c.71-.84.44-2.47-.59-3.63l-2.82-2.38c-1-1.16-2.05-1.77-2.75-.93h0c-.7.83-.43,2.47.6,3.63l2.41,2.72C20.34,21.06,21.76,21.33,22.46,20.49Z"/></clipPath><clipPath id="clip-path-7" transform="translate(-0.6 -1.14)"><path class="cls-2" d="M11.86,37.65,8.31,28.41a1,1,0,0,0-1.26-.57l-.81.32a1,1,0,0,0-.55,1.29l3.54,9.24a1.41,1.41,0,0,0,1.83.81h0A1.44,1.44,0,0,0,11.86,37.65Z"/></clipPath><clipPath id="clip-path-8" transform="translate(-0.6 -1.14)"><path class="cls-2" d="M8.33,29.69l2.77-9.51A1,1,0,0,0,10.44,19l-.82-.25a1,1,0,0,0-1.22.67L5.63,28.88a1.44,1.44,0,0,0,1,1.78h0A1.41,1.41,0,0,0,8.33,29.69Z"/></clipPath><clipPath id="clip-path-9" transform="translate(-0.6 -1.14)"><path class="cls-2" d="M36.82,15.57l-8-5.61a1,1,0,0,1-.26-1.38L29,7.86a1,1,0,0,1,1.36-.26l8.06,5.6a1.46,1.46,0,0,1,.36,2h0A1.41,1.41,0,0,1,36.82,15.57Z"/></clipPath><clipPath id="clip-path-10" transform="translate(-0.6 -1.14)"><path class="cls-2" d="M30.28,10.26,20.84,12.8a1,1,0,0,1-1.19-.71l-.22-.85A1,1,0,0,1,20.12,10L29.56,7.5a1.41,1.41,0,0,1,1.73,1h0A1.44,1.44,0,0,1,30.28,10.26Z"/></clipPath><clipPath id="clip-path-11" transform="translate(-0.6 -1.14)"><path class="cls-2" d="M20.26,8.73c4.06,4.92-.41,5.18-3.8,8.08S12.18,24.29,8,19.26A8.39,8.39,0,0,1,8.82,7.62,8.1,8.1,0,0,1,20.26,8.73Z"/></clipPath><clipPath id="clip-path-12" transform="translate(-0.6 -1.14)"><path class="cls-3" d="M19.41,11.19a15.1,15.1,0,0,0-1.48-.51,21.66,21.66,0,0,0-.65-2.1L16.07,7.17c-.47-.54-4.71-2.8-5.25-2.33L9.38,7.13a6.45,6.45,0,0,1-1.12,1L5.77,9.18c-.54.47,1,5.11,1.4,5.67l1.17,1.42c.11.13,1.72.88,1.91,1a15.15,15.15,0,0,0,.24,1.59l1,1.18c.46.56,1.82-1.34,2.37-1.81l2-2.29,2.33-1.4c.56-.48,2.76-1.64,2.28-2.19Z"/></clipPath></defs><g id="Layer_2" data-name="Layer 2"><g id="ArañaBotón"><ellipse class="cls-5" cx="12.19" cy="11.26" rx="9.92" ry="10.08"/><path class="cls-6" d="M32.7,10.55,29.13,4a.85.85,0,0,1,.47-1.08l.68-.26a.81.81,0,0,1,1,.48L33,10.45Z" transform="translate(-0.6 -1.14)"/><path class="cls-7" d="M30.22,5,22.1,4A.85.85,0,0,1,21.38,3l.09-.73a.83.83,0,0,1,.91-.72l8.12,1a1.2,1.2,0,0,1,1,1.34h0A1.19,1.19,0,0,1,30.22,5Z" transform="translate(-0.6 -1.14)"/><g class="cls-8"><path class="cls-9" d="M27.36,4A3.64,3.64,0,0,1,28,4a2.85,2.85,0,0,1,.63.14,4.7,4.7,0,0,1-.65,0A4.89,4.89,0,0,1,27.36,4Z" transform="translate(-0.6 -1.14)"/><path class="cls-9" d="M28.23,3.49a3.53,3.53,0,0,1,.65,0,3.67,3.67,0,0,1,.64.14,3.53,3.53,0,0,1-.65,0A3.67,3.67,0,0,1,28.23,3.49Z" transform="translate(-0.6 -1.14)"/><path class="cls-9" d="M27.39,2.86a3.53,3.53,0,0,1,.65,0,4.56,4.56,0,0,1,.64.14A3.53,3.53,0,0,1,28,3,3.67,3.67,0,0,1,27.39,2.86Z" transform="translate(-0.6 -1.14)"/><path class="cls-9" d="M26.45,3.37a3.53,3.53,0,0,1,.65,0,3.48,3.48,0,0,1,.64.14,3.53,3.53,0,0,1-.65,0A4.89,4.89,0,0,1,26.45,3.37Z" transform="translate(-0.6 -1.14)"/><path class="cls-9" d="M25.48,2.67a3.53,3.53,0,0,1,.65,0,3.48,3.48,0,0,1,.64.14,3.53,3.53,0,0,1-.65,0A3.67,3.67,0,0,1,25.48,2.67Z" transform="translate(-0.6 -1.14)"/><path class="cls-9" d="M25.33,3.6a4.7,4.7,0,0,1,.65,0,4.75,4.75,0,0,1,.63.14,4.7,4.7,0,0,1-.65,0A3.4,3.4,0,0,1,25.33,3.6Z" transform="translate(-0.6 -1.14)"/><path class="cls-9" d="M24.49,3a4.7,4.7,0,0,1,.65,0,4.75,4.75,0,0,1,.63.14,4.7,4.7,0,0,1-.65,0A4.42,4.42,0,0,1,24.49,3Z" transform="translate(-0.6 -1.14)"/><path class="cls-9" d="M23.22,3.35a3.53,3.53,0,0,1,.65,0,4.89,4.89,0,0,1,.64.14,3.53,3.53,0,0,1-.65,0A3.67,3.67,0,0,1,23.22,3.35Z" transform="translate(-0.6 -1.14)"/><path class="cls-9" d="M23.25,2.26a4.7,4.7,0,0,1,.65,0,4.89,4.89,0,0,1,.64.14,4.87,4.87,0,0,1-.66,0A4.75,4.75,0,0,1,23.25,2.26Z" transform="translate(-0.6 -1.14)"/><path class="cls-9" d="M22.31,2.76a4.7,4.7,0,0,1,.65,0,4.89,4.89,0,0,1,.64.14,3.53,3.53,0,0,1-.65,0A2.82,2.82,0,0,1,22.31,2.76Z" transform="translate(-0.6 -1.14)"/></g><path class="cls-10" d="M30.22,5,22.1,4A.85.85,0,0,1,21.38,3l.09-.73a.83.83,0,0,1,.91-.72l8.12,1a1.2,1.2,0,0,1,1,1.34h0A1.19,1.19,0,0,1,30.22,5Z" transform="translate(-0.6 -1.14)"/><path class="cls-7" d="M23.34,3.58,17.28,9.17a.81.81,0,0,1-1.15-.06l-.49-.55a.83.83,0,0,1,.06-1.17L21.75,1.8a1.18,1.18,0,0,1,1.67.09h0A1.21,1.21,0,0,1,23.34,3.58Z" transform="translate(-0.6 -1.14)"/><g class="cls-11"><path class="cls-9" d="M20.73,5.12a4,4,0,0,1,.42-.5,5.12,5.12,0,0,1,.52-.4,3.37,3.37,0,0,1-.42.5A4.21,4.21,0,0,1,20.73,5.12Z" transform="translate(-0.6 -1.14)"/><path class="cls-9" d="M21,4.15a2.93,2.93,0,0,1,.42-.5,3.28,3.28,0,0,1,.52-.4,4,4,0,0,1-.42.5A5.12,5.12,0,0,1,21,4.15Z" transform="translate(-0.6 -1.14)"/><path class="cls-9" d="M19.93,4.38a5,5,0,0,1,.42-.5,5.12,5.12,0,0,1,.52-.4,3.45,3.45,0,0,1-.42.51A3.36,3.36,0,0,1,19.93,4.38Z" transform="translate(-0.6 -1.14)"/><path class="cls-9" d="M19.7,5.44a2.93,2.93,0,0,1,.42-.5,2.88,2.88,0,0,1,.52-.4,5,5,0,0,1-.42.5A5.12,5.12,0,0,1,19.7,5.44Z" transform="translate(-0.6 -1.14)"/><path class="cls-9" d="M18.54,5.73A4.22,4.22,0,0,1,19,5.22a4.7,4.7,0,0,1,.52-.39,4,4,0,0,1-.42.5A4.21,4.21,0,0,1,18.54,5.73Z" transform="translate(-0.6 -1.14)"/><path class="cls-9" d="M19.13,6.46a4.18,4.18,0,0,1,.43-.5,3.42,3.42,0,0,1,.52-.4c-.12.19-.29.33-.42.5A5.25,5.25,0,0,1,19.13,6.46Z" transform="translate(-0.6 -1.14)"/><path class="cls-9" d="M18.12,6.69a4,4,0,0,1,.42-.5,4.21,4.21,0,0,1,.52-.4,4.22,4.22,0,0,1-.42.51A3.92,3.92,0,0,1,18.12,6.69Z" transform="translate(-0.6 -1.14)"/><path class="cls-9" d="M17.57,7.91c.12-.19.29-.33.42-.5a6.54,6.54,0,0,1,.52-.4,2.93,2.93,0,0,1-.42.5A3.42,3.42,0,0,1,17.57,7.91Z" transform="translate(-0.6 -1.14)"/><path class="cls-9" d="M16.77,7.17a5.15,5.15,0,0,1,.43-.5,3.36,3.36,0,0,1,.52-.39,5.15,5.15,0,0,1-.43.5A3.36,3.36,0,0,1,16.77,7.17Z" transform="translate(-0.6 -1.14)"/><path class="cls-9" d="M16.54,8.23a2.93,2.93,0,0,1,.42-.5,3.28,3.28,0,0,1,.52-.4,4,4,0,0,1-.42.5A4.21,4.21,0,0,1,16.54,8.23Z" transform="translate(-0.6 -1.14)"/></g><path class="cls-10" d="M23.34,3.58,17.28,9.17a.81.81,0,0,1-1.15-.06l-.49-.55a.83.83,0,0,1,.06-1.17L21.75,1.8a1.18,1.18,0,0,1,1.67.09h0A1.21,1.21,0,0,1,23.34,3.58Z" transform="translate(-0.6 -1.14)"/><path class="cls-12" d="M21.54,3a1.59,1.59,0,0,1,0-.65c0-.24-.08-.53,0-.71s.44-.16.65-.25.34.05.56.11.54-.16.71,0,.43.33.51.55-.32.51-.34.72.31.6.19.78-.58,0-.8.05-.39.51-.61.45-.28-.42-.45-.58A1.33,1.33,0,0,1,21.54,3Z" transform="translate(-0.6 -1.14)"/><path class="cls-13" d="M21.54,3a1.59,1.59,0,0,1,0-.65c0-.24-.08-.53,0-.71s.44-.16.65-.25.34.05.56.11.54-.16.71,0,.43.33.51.55-.32.51-.34.72.31.6.19.78-.58,0-.8.05-.39.51-.61.45-.28-.42-.45-.58A1.33,1.33,0,0,1,21.54,3Z" transform="translate(-0.6 -1.14)"/><path class="cls-12" d="M29.41,3.32c.1-.22.07-.56.24-.7s.5-.13.71-.17a1.15,1.15,0,0,1,.64.16c.21.1.27.28.39.48s.47.33.48.56-.43.35-.53.57,0,.49-.18.62a1.23,1.23,0,0,1-.62.17c-.22,0-.5.29-.71.19s-.28-.42-.4-.61A1.23,1.23,0,0,1,29.38,4,1.23,1.23,0,0,1,29.41,3.32Z" transform="translate(-0.6 -1.14)"/><path class="cls-13" d="M29.41,3.32c.1-.22.07-.56.24-.7s.5-.13.71-.17a1.15,1.15,0,0,1,.64.16c.21.1.27.28.39.48s.47.33.48.56-.43.35-.53.57,0,.49-.18.62a1.23,1.23,0,0,1-.62.17c-.22,0-.5.29-.71.19s-.28-.42-.4-.61A1.23,1.23,0,0,1,29.38,4,1.23,1.23,0,0,1,29.41,3.32Z" transform="translate(-0.6 -1.14)"/><path class="cls-6" d="M10.26,31.19,3.73,27.74a.81.81,0,0,0-1,.5l-.24.7A.84.84,0,0,0,2.94,30l7.23,1.47Z" transform="translate(-0.6 -1.14)"/><path class="cls-7" d="M4.69,28.81,3.48,20.6a.82.82,0,0,0-.93-.7L1.83,20a.84.84,0,0,0-.69.94l1.22,8.22a1.19,1.19,0,0,0,1.34,1h0A1.2,1.2,0,0,0,4.69,28.81Z" transform="translate(-0.6 -1.14)"/><g class="cls-14"><path class="cls-9" d="M3.63,26a4.28,4.28,0,0,1,.16.64,4.82,4.82,0,0,1,0,.66,5,5,0,0,1-.16-.64A4.85,4.85,0,0,1,3.63,26Z" transform="translate(-0.6 -1.14)"/><path class="cls-9" d="M3.19,26.84a3.75,3.75,0,0,1,.16.64,3.64,3.64,0,0,1,0,.66,3.71,3.71,0,0,1-.15-.64A4.85,4.85,0,0,1,3.19,26.84Z" transform="translate(-0.6 -1.14)"/><path class="cls-9" d="M2.55,26a3.75,3.75,0,0,1,.16.64,3.74,3.74,0,0,1,0,.67A3.38,3.38,0,0,1,2.55,26Z" transform="translate(-0.6 -1.14)"/><path class="cls-9" d="M3,25a3.5,3.5,0,0,1,.15.64,3.61,3.61,0,0,1,0,.66A5,5,0,0,1,3,25.7,3.64,3.64,0,0,1,3,25Z" transform="translate(-0.6 -1.14)"/><path class="cls-9" d="M2.31,24.07a3.75,3.75,0,0,1,.16.64,3.64,3.64,0,0,1,0,.66,3.71,3.71,0,0,1-.15-.64A3.61,3.61,0,0,1,2.31,24.07Z" transform="translate(-0.6 -1.14)"/><path class="cls-9" d="M3.23,23.88a3.61,3.61,0,0,1,.15.65,3.61,3.61,0,0,1,0,.66,4.74,4.74,0,0,1-.16-.65A3.62,3.62,0,0,1,3.23,23.88Z" transform="translate(-0.6 -1.14)"/><path class="cls-9" d="M2.59,23.05a3.71,3.71,0,0,1,.15.64,3.61,3.61,0,0,1,0,.66,3.75,3.75,0,0,1-.16-.64A3.64,3.64,0,0,1,2.59,23.05Z" transform="translate(-0.6 -1.14)"/><path class="cls-9" d="M2.92,21.76a3.33,3.33,0,0,1,.16.64,3.62,3.62,0,0,1,0,.66,3.3,3.3,0,0,1-.17-1.3Z" transform="translate(-0.6 -1.14)"/><path class="cls-9" d="M1.85,21.81a4.94,4.94,0,0,1,.15.64,4.85,4.85,0,0,1,0,.66,3.33,3.33,0,0,1-.16-.64A3.62,3.62,0,0,1,1.85,21.81Z" transform="translate(-0.6 -1.14)"/><path class="cls-9" d="M2.32,20.85a4.61,4.61,0,0,1,.16.64,4.82,4.82,0,0,1,0,.66,5,5,0,0,1-.16-.64A4.85,4.85,0,0,1,2.32,20.85Z" transform="translate(-0.6 -1.14)"/></g><path class="cls-10" d="M4.69,28.81,3.48,20.6a.82.82,0,0,0-.93-.7L1.83,20a.84.84,0,0,0-.69.94l1.22,8.22a1.19,1.19,0,0,0,1.34,1h0A1.2,1.2,0,0,0,4.69,28.81Z" transform="translate(-0.6 -1.14)"/><path class="cls-7" d="M3.15,21.87l5.33-6.3a.85.85,0,0,0-.08-1.18l-.55-.48A.83.83,0,0,0,6.69,14L1.36,20.31A1.21,1.21,0,0,0,1.49,22h0A1.17,1.17,0,0,0,3.15,21.87Z" transform="translate(-0.6 -1.14)"/><g class="cls-15"><path class="cls-9" d="M4.6,19.18a5.08,5.08,0,0,1-.38.53,4.12,4.12,0,0,1-.48.45,3.43,3.43,0,0,1,.37-.54A3.42,3.42,0,0,1,4.6,19.18Z" transform="translate(-0.6 -1.14)"/><path class="cls-9" d="M3.64,19.43a3.87,3.87,0,0,1-.37.53,3.54,3.54,0,0,1-.49.45,4.33,4.33,0,0,1,.38-.54A3.34,3.34,0,0,1,3.64,19.43Z" transform="translate(-0.6 -1.14)"/><path class="cls-9" d="M3.85,18.39a3.94,3.94,0,0,1-.38.53,4.12,4.12,0,0,1-.48.45,4.27,4.27,0,0,1,.37-.54A4.06,4.06,0,0,1,3.85,18.39Z" transform="translate(-0.6 -1.14)"/><path class="cls-9" d="M4.88,18.12a4,4,0,0,1-.38.54A4,4,0,0,1,4,19.1a4,4,0,0,1,.38-.54A4,4,0,0,1,4.88,18.12Z" transform="translate(-0.6 -1.14)"/><path class="cls-9" d="M5.13,16.94a4,4,0,0,1-.37.54,4.15,4.15,0,0,1-.49.44,4,4,0,0,1,.38-.54A4,4,0,0,1,5.13,16.94Z" transform="translate(-0.6 -1.14)"/><path class="cls-9" d="M5.87,17.52a3.48,3.48,0,0,1-.38.54A3.34,3.34,0,0,1,5,18.5,4,4,0,0,1,5.39,18,4,4,0,0,1,5.87,17.52Z" transform="translate(-0.6 -1.14)"/><path class="cls-9" d="M6.07,16.48A3.43,3.43,0,0,1,5.7,17a3,3,0,0,1-.49.44,5.08,5.08,0,0,1,.38-.53A3.41,3.41,0,0,1,6.07,16.48Z" transform="translate(-0.6 -1.14)"/><path class="cls-9" d="M7.26,15.9a3.94,3.94,0,0,1-.38.53,4.12,4.12,0,0,1-.48.45,3.43,3.43,0,0,1,.37-.54A4.06,4.06,0,0,1,7.26,15.9Z" transform="translate(-0.6 -1.14)"/><path class="cls-9" d="M6.51,15.11a5,5,0,0,1-.37.53,5.23,5.23,0,0,1-.49.45A3.48,3.48,0,0,1,6,15.55,3.34,3.34,0,0,1,6.51,15.11Z" transform="translate(-0.6 -1.14)"/><path class="cls-9" d="M7.54,14.84a5.14,5.14,0,0,1-.37.54,5.12,5.12,0,0,1-.49.44,4,4,0,0,1,.38-.54A4,4,0,0,1,7.54,14.84Z" transform="translate(-0.6 -1.14)"/></g><path class="cls-10" d="M3.15,21.87l5.33-6.3a.85.85,0,0,0-.08-1.18l-.55-.48A.83.83,0,0,0,6.69,14L1.36,20.31A1.21,1.21,0,0,0,1.49,22h0A1.17,1.17,0,0,0,3.15,21.87Z" transform="translate(-0.6 -1.14)"/><path class="cls-12" d="M2.58,19.92a1.88,1.88,0,0,0-.73-.13,1.8,1.8,0,0,0-.73.24c-.18.13-.11.52-.18.74s-.32.46-.26.68.44.27.6.44.19.5.41.58.49-.07.7-.1a1.11,1.11,0,0,0,.55-.28c.18-.13.56-.16.64-.38a1.63,1.63,0,0,0,.09-.78c-.06-.22-.48-.29-.64-.46S2.8,20,2.58,19.92Z" transform="translate(-0.6 -1.14)"/><path class="cls-13" d="M2.58,19.92a1.88,1.88,0,0,0-.73-.13,1.8,1.8,0,0,0-.73.24c-.18.13-.11.52-.18.74s-.32.46-.26.68.44.27.6.44.19.5.41.58.49-.07.7-.1a1.11,1.11,0,0,0,.55-.28c.18-.13.56-.16.64-.38a1.63,1.63,0,0,0,.09-.78c-.06-.22-.48-.29-.64-.46S2.8,20,2.58,19.92Z" transform="translate(-0.6 -1.14)"/><path class="cls-12" d="M3,28c-.22.11-.5.17-.63.34a1.65,1.65,0,0,0-.27.68c0,.23.17.44.27.65s.17.46.36.57.45,0,.68,0,.48.15.69.05.29-.39.42-.56a1.16,1.16,0,0,0,.23-.59,1.15,1.15,0,0,0,0-.66c-.1-.21-.4-.17-.59-.28A.94.94,0,0,0,3.68,28C3.47,28,3.25,27.9,3,28Z" transform="translate(-0.6 -1.14)"/><path class="cls-13" d="M3,28c-.22.11-.5.17-.63.34a1.65,1.65,0,0,0-.27.68c0,.23.17.44.27.65s.17.46.36.57.45,0,.68,0,.48.15.69.05.29-.39.42-.56a1.16,1.16,0,0,0,.23-.59,1.15,1.15,0,0,0,0-.66c-.1-.21-.4-.17-.59-.28A.94.94,0,0,0,3.68,28C3.47,28,3.25,27.9,3,28Z" transform="translate(-0.6 -1.14)"/><path class="cls-12" d="M18.75,23.68h0c-.93.56-2.48,0-3.43-1.21l-1.83-3.23c-1-1.23-1.37-2.34-.44-2.91h0c.93-.56,2.47,0,3.42,1.21l2.24,2.88C19.66,21.65,19.68,23.11,18.75,23.68Z" transform="translate(-0.6 -1.14)"/><g class="cls-16"><path class="cls-9" d="M18.84,23.61c.29,0,.37-.39,0-.39s-.38.39,0,.39Z" transform="translate(-0.6 -1.14)"/><g class="cls-17"><path class="cls-18" d="M15.8,17.4a19.21,19.21,0,0,0,3.43,5.8c.43.5,1.16-.23.73-.72a18,18,0,0,1-3.17-5.36.51.51,0,1,0-1,.28Z" transform="translate(-0.6 -1.14)"/></g><path class="cls-9" d="M16,18.87a2.3,2.3,0,0,1,.32.49,2.9,2.9,0,0,1,.18.57,2.63,2.63,0,0,1-.33-.49A2.69,2.69,0,0,1,16,18.87Z" transform="translate(-0.6 -1.14)"/><path class="cls-9" d="M16.26,20.52c.15.09.23.24.35.35s.2.28.17.46c-.11-.13-.19-.24-.31-.36A2,2,0,0,1,16.26,20.52Z" transform="translate(-0.6 -1.14)"/><path class="cls-9" d="M17.34,21.11a3,3,0,0,1,.41.52,2.28,2.28,0,0,1,.24.61,6.55,6.55,0,0,1-.39-.53A3.62,3.62,0,0,1,17.34,21.11Z" transform="translate(-0.6 -1.14)"/><path class="cls-9" d="M17,22.1c.15.07.22.2.33.3a1.4,1.4,0,0,1,.19.41c-.14-.07-.21-.21-.33-.31S17,22.26,17,22.1Z" transform="translate(-0.6 -1.14)"/><path class="cls-9" d="M15.44,19.83a1.72,1.72,0,0,1,.33.33.9.9,0,0,1,.08.23.56.56,0,0,1,0,.23c-.12-.11-.15-.27-.26-.37A2.31,2.31,0,0,1,15.44,19.83Z" transform="translate(-0.6 -1.14)"/><path class="cls-9" d="M15.66,21.22a2.87,2.87,0,0,1,.41.51,2.52,2.52,0,0,1,.25.62,4.48,4.48,0,0,1-.39-.53A3.64,3.64,0,0,1,15.66,21.22Z" transform="translate(-0.6 -1.14)"/><path class="cls-9" d="M14.77,19.53a2.76,2.76,0,0,1,.32.49,3.77,3.77,0,0,1,.18.57,2.63,2.63,0,0,1-.33-.49A2.69,2.69,0,0,1,14.77,19.53Z" transform="translate(-0.6 -1.14)"/><g class="cls-17"><path class="cls-18" d="M11.28,20.6c.36,0,.72.1,1.09.08a4.54,4.54,0,0,0,1.16-.19,5.83,5.83,0,0,0,1.84-1.23c.25-.21.48-.44.73-.66a3.14,3.14,0,0,0,.73-.81,6.7,6.7,0,0,0,.43-1,3.91,3.91,0,0,0,.29-1.05.78.78,0,1,0-1.55,0c0-.1,0,.06,0,.09a1.18,1.18,0,0,1-.07.2c-.05.14-.11.26-.15.4a4.84,4.84,0,0,1-.28.66s-.11.15-.05.08a1.14,1.14,0,0,1-.16.15c-.11.1-.23.19-.34.3s-.43.4-.66.59A3.82,3.82,0,0,1,13,19a2.56,2.56,0,0,1-.76.12c-.33,0-.63-.09-1-.09a.79.79,0,0,0-.77.78.78.78,0,0,0,.77.77Z" transform="translate(-0.6 -1.14)"/></g></g><path class="cls-19" d="M18.75,23.68h0c-.93.56-2.48,0-3.43-1.21l-1.83-3.23c-1-1.23-1.37-2.34-.44-2.91h0c.93-.56,2.47,0,3.42,1.21l2.24,2.88C19.66,21.65,19.68,23.11,18.75,23.68Z" transform="translate(-0.6 -1.14)"/><path class="cls-12" d="M22.46,20.49h0c.71-.84.44-2.47-.59-3.63l-2.82-2.38c-1-1.16-2.05-1.77-2.75-.93h0c-.7.83-.43,2.47.6,3.63l2.41,2.72C20.34,21.06,21.76,21.33,22.46,20.49Z" transform="translate(-0.6 -1.14)"/><g class="cls-20"><path class="cls-9" d="M22,20.65c.1,0,.56-.19.33-.19s-.57.19-.33.19Z" transform="translate(-0.6 -1.14)"/><g class="cls-17"><path class="cls-18" d="M16.39,17.4a18,18,0,0,1,4.76,4.16.52.52,0,0,0,.73,0,.54.54,0,0,0,0-.73,18.86,18.86,0,0,0-5-4.32c-.56-.35-1.08.54-.52.89Z" transform="translate(-0.6 -1.14)"/></g><path class="cls-9" d="M18.26,16.9a2.93,2.93,0,0,1,.53.27,2.33,2.33,0,0,1,.42.41,3.2,3.2,0,0,1-.52-.27A2.78,2.78,0,0,1,18.26,16.9Z" transform="translate(-0.6 -1.14)"/><path class="cls-9" d="M19.82,17.47a1.64,1.64,0,0,1,.4.29c.1.14.19.23.3.37-.18,0-.3-.17-.42-.26A1.68,1.68,0,0,1,19.82,17.47Z" transform="translate(-0.6 -1.14)"/><path class="cls-9" d="M20.21,18.65a5.21,5.21,0,0,1,.55.36c.13.17.31.29.44.48a2.38,2.38,0,0,1-.56-.35A4,4,0,0,1,20.21,18.65Z" transform="translate(-0.6 -1.14)"/><path class="cls-9" d="M21.23,18.46a1.61,1.61,0,0,1,.36.27c.08.13.2.22.24.38a1.38,1.38,0,0,1-.36-.26A1.41,1.41,0,0,1,21.23,18.46Z" transform="translate(-0.6 -1.14)"/><path class="cls-9" d="M19.29,16.53a1.44,1.44,0,0,1,.37.26c.09.12.23.17.32.31a.41.41,0,0,1-.22-.07.84.84,0,0,1-.21-.11A1.66,1.66,0,0,1,19.29,16.53Z" transform="translate(-0.6 -1.14)"/><path class="cls-9" d="M20.6,17a3.43,3.43,0,0,1,.54.37c.14.16.31.28.45.47a1.82,1.82,0,0,1-.56-.35A2.85,2.85,0,0,1,20.6,17Z" transform="translate(-0.6 -1.14)"/><path class="cls-9" d="M19.11,15.81a2.55,2.55,0,0,1,.52.27,1.81,1.81,0,0,1,.42.41,3.25,3.25,0,0,1-.52-.28A2.27,2.27,0,0,1,19.11,15.81Z" transform="translate(-0.6 -1.14)"/><g class="cls-17"><path class="cls-18" d="M19.24,12.16c-.07.35,0,.7-.08,1.05,0-.14,0,0,0,.08a1.29,1.29,0,0,1,0,.19,3.45,3.45,0,0,1-.14.42c0-.11,0,0,0,.06l-.11.18a1.36,1.36,0,0,1-.19.27,7.07,7.07,0,0,1-.71.64l-.36.32-.17.14s0,0,0,0l-.07,0a5.28,5.28,0,0,0-.44.36l-.16.14c.11-.08-.09,0-.09,0s0,0-.06,0l-.18.06-.51.11-.42.08s-.23,0-.13,0a2.26,2.26,0,0,1-.26,0,.77.77,0,0,0-.77.77.8.8,0,0,0,.77.78,4.9,4.9,0,0,0,1.14-.16,5,5,0,0,0,.94-.24,4.36,4.36,0,0,0,1-.67l.11-.07.29-.24.43-.37a4.82,4.82,0,0,0,1.38-1.6,6,6,0,0,0,.33-1,3.43,3.43,0,0,0,.08-.56v-.4q0-.15,0-.06a.78.78,0,0,0-.54-1,.78.78,0,0,0-1,.54Z" transform="translate(-0.6 -1.14)"/></g></g><path class="cls-19" d="M22.46,20.49h0c.71-.84.44-2.47-.59-3.63l-2.82-2.38c-1-1.16-2.05-1.77-2.75-.93h0c-.7.83-.43,2.47.6,3.63l2.41,2.72C20.34,21.06,21.76,21.33,22.46,20.49Z" transform="translate(-0.6 -1.14)"/><path class="cls-12" d="M19,6.73c-.16-.19.25-.74.08-.91s-.66.19-.85,0,.75-2,.54-2.08-.29-.78-.51-.88-.86.64-1.09.56-1,1.87-1.19,1.82-.12-1.7-.37-1.73S15.08,5,14.84,5s-.41-.87-.65-.86-.72-2.24-1-2.21,0,2.87-.27,2.92-.62-.72-.85-.65S11,2.38,10.73,2.46s-.31.78-.53.88.24,1.7,0,1.81-.05.8-.26.93-.07.64-.27.77-.87-.51-1.07-.36S7.55,5.9,7.36,6.06,6,5.35,5.79,5.52s.86,1.6.69,1.78.78,1.27.62,1.45S5.34,8,5.2,8.18s-.6.24-.73.45.82,1.06.71,1.28-1.7-.28-1.81-.05,1.53,1.19,1.45,1.41-2.2-.19-2.26.05S5.15,12.5,5.1,12.73s-1.89.14-1.92.38,1.94.62,1.92.86S3,14.41,3,14.66s1.77.3,1.8.54a4.37,4.37,0,0,0,0,.63c.06.24-2.34,1.25-2.26,1.48s1.85-.18,2,0A5.68,5.68,0,0,0,5,17.9c.13.2-.42.92-.27,1.11s1.83-1.12,2-1-.17.72,0,.86-.38,1.4-.17,1.52.09,1.1.31,1.2.7-.14.93-.07.4.85.64.9.76-1,1-1,.51.61.75.62.44-2.81.68-2.82.52,1.33.76,1.3.81,1.69,1.05,1.64.44-.6.68-.66-.07-1.81.16-1.89.69.5.91.4,1.08,1.08,1.3,1-.5-2-.29-2.09,1.36,1.23,1.56,1.09-.4-1.42-.2-1.57.81.23,1,.07-1-1.74-.79-1.91.88.27,1.05.1.41-.25.56-.43,1.06.2,1.2,0,0-.63.09-.84,1.33.17,1.45,0,.41-.45.51-.67.6-.4.68-.62-1.5-1.09-1.43-1.33-1.09-.73-1-1,1.37-.21,1.4-.45.55-.46.56-.7a6.77,6.77,0,0,0,0-.78c0-.25-1.83-.3-1.86-.54s-.31-.29-.37-.52a5.21,5.21,0,0,0-.09-.57c-.08-.23,2.32-1.51,2.22-1.73s-1-.12-1.09-.33S19.16,6.92,19,6.73Z" transform="translate(-0.6 -1.14)"/><path class="cls-19" d="M19,6.73c-.16-.19.25-.74.08-.91s-.66.19-.85,0,.75-2,.54-2.08-.29-.78-.51-.88-.86.64-1.09.56-1,1.87-1.19,1.82-.12-1.7-.37-1.73S15.08,5,14.84,5s-.41-.87-.65-.86-.72-2.24-1-2.21,0,2.87-.27,2.92-.62-.72-.85-.65S11,2.38,10.73,2.46s-.31.78-.53.88.24,1.7,0,1.81-.05.8-.26.93-.07.64-.27.77-.87-.51-1.07-.36S7.55,5.9,7.36,6.06,6,5.35,5.79,5.52s.86,1.6.69,1.78.78,1.27.62,1.45S5.34,8,5.2,8.18s-.6.24-.73.45.82,1.06.71,1.28-1.7-.28-1.81-.05,1.53,1.19,1.45,1.41-2.2-.19-2.26.05S5.15,12.5,5.1,12.73s-1.89.14-1.92.38,1.94.62,1.92.86S3,14.41,3,14.66s1.77.3,1.8.54a4.37,4.37,0,0,0,0,.63c.06.24-2.34,1.25-2.26,1.48s1.85-.18,2,0A5.68,5.68,0,0,0,5,17.9c.13.2-.42.92-.27,1.11s1.83-1.12,2-1-.17.72,0,.86-.38,1.4-.17,1.52.09,1.1.31,1.2.7-.14.93-.07.4.85.64.9.76-1,1-1,.51.61.75.62.44-2.81.68-2.82.52,1.33.76,1.3.81,1.69,1.05,1.64.44-.6.68-.66-.07-1.81.16-1.89.69.5.91.4,1.08,1.08,1.3,1-.5-2-.29-2.09,1.36,1.23,1.56,1.09-.4-1.42-.2-1.57.81.23,1,.07-1-1.74-.79-1.91.88.27,1.05.1.41-.25.56-.43,1.06.2,1.2,0,0-.63.09-.84,1.33.17,1.45,0,.41-.45.51-.67.6-.4.68-.62-1.5-1.09-1.43-1.33-1.09-.73-1-1,1.37-.21,1.4-.45.55-.46.56-.7a6.77,6.77,0,0,0,0-.78c0-.25-1.83-.3-1.86-.54s-.31-.29-.37-.52a5.21,5.21,0,0,0-.09-.57c-.08-.23,2.32-1.51,2.22-1.73s-1-.12-1.09-.33S19.16,6.92,19,6.73Z" transform="translate(-0.6 -1.14)"/><path class="cls-21" d="M16.66,44.25,11.52,37a1,1,0,0,0-1.38,0l-.63.61a1,1,0,0,0,0,1.4l6.92,5.51Z" transform="translate(-0.6 -1.14)"/><path class="cls-7" d="M11.86,37.65,8.31,28.41a1,1,0,0,0-1.26-.57l-.81.32a1,1,0,0,0-.55,1.29l3.54,9.24a1.41,1.41,0,0,0,1.83.81h0A1.44,1.44,0,0,0,11.86,37.65Z" transform="translate(-0.6 -1.14)"/><g class="cls-22"><path class="cls-9" d="M9.88,34.59a5.12,5.12,0,0,1,.34.71,5,5,0,0,1,.19.76,4.57,4.57,0,0,1-.35-.7A5.06,5.06,0,0,1,9.88,34.59Z" transform="translate(-0.6 -1.14)"/><path class="cls-9" d="M9.6,35.75a4.68,4.68,0,0,1,.35.71,4.68,4.68,0,0,1,.18.76,5,5,0,0,1-.34-.7A5.09,5.09,0,0,1,9.6,35.75Z" transform="translate(-0.6 -1.14)"/><path class="cls-9" d="M8.64,35a4.63,4.63,0,0,1,.34.71,4.69,4.69,0,0,1,.19.76A3.5,3.5,0,0,1,8.64,35Z" transform="translate(-0.6 -1.14)"/><path class="cls-9" d="M8.94,33.7a5.08,5.08,0,0,1,.35.7,5.06,5.06,0,0,1,.18.77,3.9,3.9,0,0,1-.53-1.47Z" transform="translate(-0.6 -1.14)"/><path class="cls-9" d="M7.86,32.76a5.12,5.12,0,0,1,.34.71,4.69,4.69,0,0,1,.19.76,4.57,4.57,0,0,1-.35-.7A5.06,5.06,0,0,1,7.86,32.76Z" transform="translate(-0.6 -1.14)"/><path class="cls-9" d="M8.87,32.3a4.68,4.68,0,0,1,.35.71,4.69,4.69,0,0,1,.19.76,5.08,5.08,0,0,1-.35-.7A5.09,5.09,0,0,1,8.87,32.3Z" transform="translate(-0.6 -1.14)"/><path class="cls-9" d="M7.91,31.5a4.68,4.68,0,0,1,.35.71,4.68,4.68,0,0,1,.18.76,5,5,0,0,1-.34-.7A5.09,5.09,0,0,1,7.91,31.5Z" transform="translate(-0.6 -1.14)"/><path class="cls-9" d="M8,29.91a5,5,0,0,1,.34.7,4.81,4.81,0,0,1,.19.77,4.68,4.68,0,0,1-.35-.71A4.94,4.94,0,0,1,8,29.91Z" transform="translate(-0.6 -1.14)"/><path class="cls-9" d="M6.73,30.26a3.9,3.9,0,0,1,.53,1.47,5.08,5.08,0,0,1-.35-.7A5.06,5.06,0,0,1,6.73,30.26Z" transform="translate(-0.6 -1.14)"/><path class="cls-9" d="M7,29a5.08,5.08,0,0,1,.35.7,5.06,5.06,0,0,1,.18.77,4.63,4.63,0,0,1-.34-.71A4.69,4.69,0,0,1,7,29Z" transform="translate(-0.6 -1.14)"/></g><path class="cls-19" d="M11.86,37.65,8.31,28.41a1,1,0,0,0-1.26-.57l-.81.32a1,1,0,0,0-.55,1.29l3.54,9.24a1.41,1.41,0,0,0,1.83.81h0A1.44,1.44,0,0,0,11.86,37.65Z" transform="translate(-0.6 -1.14)"/><path class="cls-7" d="M8.33,29.69l2.77-9.51A1,1,0,0,0,10.44,19l-.82-.25a1,1,0,0,0-1.22.67L5.63,28.88a1.44,1.44,0,0,0,1,1.78h0A1.41,1.41,0,0,0,8.33,29.69Z" transform="translate(-0.6 -1.14)"/><g class="cls-23"><path class="cls-9" d="M8.61,26.05a5,5,0,0,1-.15.77,6.51,6.51,0,0,1-.31.72,4,4,0,0,1,.15-.77A3.82,3.82,0,0,1,8.61,26.05Z" transform="translate(-0.6 -1.14)"/><path class="cls-9" d="M7.69,26.79a4,4,0,0,1-.15.77,3.82,3.82,0,0,1-.31.72,5,5,0,0,1,.15-.77A6.51,6.51,0,0,1,7.69,26.79Z" transform="translate(-0.6 -1.14)"/><path class="cls-9" d="M7.42,25.56a6.55,6.55,0,0,1-.15.77,5.1,5.1,0,0,1-.32.72,5,5,0,0,1,.15-.77A4.64,4.64,0,0,1,7.42,25.56Z" transform="translate(-0.6 -1.14)"/><path class="cls-9" d="M8.41,24.75a4.89,4.89,0,0,1-.15.78,6.51,6.51,0,0,1-.31.72,3.89,3.89,0,0,1,.15-.77A4.21,4.21,0,0,1,8.41,24.75Z" transform="translate(-0.6 -1.14)"/><path class="cls-9" d="M8.12,23.34a5.12,5.12,0,0,1-.15.78,5.1,5.1,0,0,1-.32.72,6.17,6.17,0,0,1,.15-.77A5.22,5.22,0,0,1,8.12,23.34Z" transform="translate(-0.6 -1.14)"/><path class="cls-9" d="M9.2,23.61a5,5,0,0,1-.15.77,5.78,5.78,0,0,1-.31.72,4,4,0,0,1,.15-.77A4.12,4.12,0,0,1,9.2,23.61Z" transform="translate(-0.6 -1.14)"/><path class="cls-9" d="M8.92,22.38a5,5,0,0,1-.15.77,4.12,4.12,0,0,1-.31.72,4,4,0,0,1,.15-.77A3.82,3.82,0,0,1,8.92,22.38Z" transform="translate(-0.6 -1.14)"/><path class="cls-9" d="M9.93,21.15a4.77,4.77,0,0,1-.15.77,5.22,5.22,0,0,1-.32.73,6.71,6.71,0,0,1,.15-.78A5.1,5.1,0,0,1,9.93,21.15Z" transform="translate(-0.6 -1.14)"/><path class="cls-9" d="M8.73,20.66a3.89,3.89,0,0,1-.15.77,4.21,4.21,0,0,1-.31.73,5.12,5.12,0,0,1,.15-.78A6.51,6.51,0,0,1,8.73,20.66Z" transform="translate(-0.6 -1.14)"/><path class="cls-9" d="M9.73,19.86a5,5,0,0,1-.15.77,4.64,4.64,0,0,1-.32.72,6.55,6.55,0,0,1,.15-.77A5.1,5.1,0,0,1,9.73,19.86Z" transform="translate(-0.6 -1.14)"/></g><path class="cls-19" d="M8.33,29.69l2.77-9.51A1,1,0,0,0,10.44,19l-.82-.25a1,1,0,0,0-1.22.67L5.63,28.88a1.44,1.44,0,0,0,1,1.78h0A1.41,1.41,0,0,0,8.33,29.69Z" transform="translate(-0.6 -1.14)"/><path class="cls-12" d="M6.8,28.25c-.28,0-.5,0-.72.1a1.34,1.34,0,0,0-.47.56c-.13.23-.44.43-.42.7a1.62,1.62,0,0,0,.29.82c.16.21.57.09.83.19s.44.44.72.42.43-.39.65-.53.57-.15.7-.38a1.45,1.45,0,0,0,.17-.8c0-.28-.33-.4-.49-.61s-.34-.21-.6-.32A1.31,1.31,0,0,0,6.8,28.25Z" transform="translate(-0.6 -1.14)"/><path class="cls-24" d="M6.8,28.25c-.28,0-.5,0-.72.1a1.34,1.34,0,0,0-.47.56c-.13.23-.44.43-.42.7a1.62,1.62,0,0,0,.29.82c.16.21.57.09.83.19s.44.44.72.42.43-.39.65-.53.57-.15.7-.38a1.45,1.45,0,0,0,.17-.8c0-.28-.33-.4-.49-.61s-.34-.21-.6-.32A1.31,1.31,0,0,0,6.8,28.25Z" transform="translate(-0.6 -1.14)"/><path class="cls-12" d="M9.86,37.32c-.22.18-.44.26-.54.5a1.32,1.32,0,0,0-.1.73c0,.27-.11.6.06.82a1.59,1.59,0,0,0,.69.52c.25.07.52-.25.79-.31s.61.1.82-.08.15-.56.26-.79.38-.45.36-.71a1.47,1.47,0,0,0-.3-.77c-.17-.22-.49-.16-.74-.23s-.4,0-.67.07A1.27,1.27,0,0,0,9.86,37.32Z" transform="translate(-0.6 -1.14)"/><path class="cls-24" d="M9.86,37.32c-.22.18-.44.26-.54.5a1.32,1.32,0,0,0-.1.73c0,.27-.11.6.06.82a1.59,1.59,0,0,0,.69.52c.25.07.52-.25.79-.31s.61.1.82-.08.15-.56.26-.79.38-.45.36-.71a1.47,1.47,0,0,0-.3-.77c-.17-.22-.49-.16-.74-.23s-.4,0-.67.07A1.27,1.27,0,0,0,9.86,37.32Z" transform="translate(-0.6 -1.14)"/><path class="cls-21" d="M36.43,22.88,36.19,14a1,1,0,0,1,1.08-.88l.86.1a1,1,0,0,1,.86,1.1l-2.21,8.65Z" transform="translate(-0.6 -1.14)"/><path class="cls-7" d="M36.82,15.57l-8-5.61a1,1,0,0,1-.26-1.38L29,7.86a1,1,0,0,1,1.36-.26l8.06,5.6a1.46,1.46,0,0,1,.36,2h0A1.41,1.41,0,0,1,36.82,15.57Z" transform="translate(-0.6 -1.14)"/><g class="cls-25"><path class="cls-9" d="M34.34,12.91a4.63,4.63,0,0,1,.7.36,5.57,5.57,0,0,1,.59.5,4.1,4.1,0,0,1-.69-.36A4.68,4.68,0,0,1,34.34,12.91Z" transform="translate(-0.6 -1.14)"/><path class="cls-9" d="M35.52,12.9a4.52,4.52,0,0,1,.69.36,5.57,5.57,0,0,1,.59.5,4.52,4.52,0,0,1-.69-.36A4,4,0,0,1,35.52,12.9Z" transform="translate(-0.6 -1.14)"/><path class="cls-9" d="M35,11.77a4.52,4.52,0,0,1,.69.36,4,4,0,0,1,.59.5,4.52,4.52,0,0,1-.69-.36A4.72,4.72,0,0,1,35,11.77Z" transform="translate(-0.6 -1.14)"/><path class="cls-9" d="M33.7,11.78a4.52,4.52,0,0,1,.69.36,4.72,4.72,0,0,1,.59.5,4.52,4.52,0,0,1-.69-.36A4.6,4.6,0,0,1,33.7,11.78Z" transform="translate(-0.6 -1.14)"/><path class="cls-9" d="M33.05,10.5a4.52,4.52,0,0,1,.69.36,4.72,4.72,0,0,1,.59.5,4.52,4.52,0,0,1-.69-.36A5.57,5.57,0,0,1,33.05,10.5Z" transform="translate(-0.6 -1.14)"/><path class="cls-9" d="M32.37,11.4a4.63,4.63,0,0,1,.7.36,5.57,5.57,0,0,1,.59.5A4.1,4.1,0,0,1,33,11.9,5.68,5.68,0,0,1,32.37,11.4Z" transform="translate(-0.6 -1.14)"/><path class="cls-9" d="M31.82,10.26a7.67,7.67,0,0,1,.7.36,4.69,4.69,0,0,1,.59.51,6.39,6.39,0,0,1-.69-.36A4.77,4.77,0,0,1,31.82,10.26Z" transform="translate(-0.6 -1.14)"/><path class="cls-9" d="M30.28,10a3.65,3.65,0,0,1,1.29.86,4.1,4.1,0,0,1-.69-.36A5.68,5.68,0,0,1,30.28,10Z" transform="translate(-0.6 -1.14)"/><path class="cls-9" d="M30.91,8.81a5,5,0,0,1,.69.36,5.57,5.57,0,0,1,.59.5,4.52,4.52,0,0,1-.69-.36A4,4,0,0,1,30.91,8.81Z" transform="translate(-0.6 -1.14)"/><path class="cls-9" d="M29.64,8.83a4.52,4.52,0,0,1,.69.36,4.6,4.6,0,0,1,.59.5,4.52,4.52,0,0,1-.69-.36A4.72,4.72,0,0,1,29.64,8.83Z" transform="translate(-0.6 -1.14)"/></g><path class="cls-19" d="M36.82,15.57l-8-5.61a1,1,0,0,1-.26-1.38L29,7.86a1,1,0,0,1,1.36-.26l8.06,5.6a1.46,1.46,0,0,1,.36,2h0A1.41,1.41,0,0,1,36.82,15.57Z" transform="translate(-0.6 -1.14)"/><path class="cls-7" d="M30.28,10.26,20.84,12.8a1,1,0,0,1-1.19-.71l-.22-.85A1,1,0,0,1,20.12,10L29.56,7.5a1.41,1.41,0,0,1,1.73,1h0A1.44,1.44,0,0,1,30.28,10.26Z" transform="translate(-0.6 -1.14)"/><g class="cls-26"><path class="cls-9" d="M26.69,10.44a4.55,4.55,0,0,1,.72-.3,4.64,4.64,0,0,1,.76-.13,5,5,0,0,1-.72.3A4.64,4.64,0,0,1,26.69,10.44Z" transform="translate(-0.6 -1.14)"/><path class="cls-9" d="M27.44,9.53a6.44,6.44,0,0,1,.72-.3,5,5,0,0,1,.77-.13,4.07,4.07,0,0,1-.72.3A5,5,0,0,1,27.44,9.53Z" transform="translate(-0.6 -1.14)"/><path class="cls-9" d="M26.24,9.21A4.93,4.93,0,0,1,27,8.92a3.27,3.27,0,0,1,.76-.13,4.81,4.81,0,0,1-.71.29A5,5,0,0,1,26.24,9.21Z" transform="translate(-0.6 -1.14)"/><path class="cls-9" d="M25.42,10.2a5,5,0,0,1,.72-.3,5,5,0,0,1,.77-.13,5,5,0,0,1-.72.3A5,5,0,0,1,25.42,10.2Z" transform="translate(-0.6 -1.14)"/><path class="cls-9" d="M24,9.86a5,5,0,0,1,.72-.3,5,5,0,0,1,.77-.13,4.07,4.07,0,0,1-.72.3A5,5,0,0,1,24,9.86Z" transform="translate(-0.6 -1.14)"/><path class="cls-9" d="M24.27,11a4.07,4.07,0,0,1,.72-.3,5,5,0,0,1,.77-.13,4.93,4.93,0,0,1-.72.29A4,4,0,0,1,24.27,11Z" transform="translate(-0.6 -1.14)"/><path class="cls-9" d="M23.07,10.65a4.55,4.55,0,0,1,.72-.3,4.64,4.64,0,0,1,.76-.13,5,5,0,0,1-.72.3A4.64,4.64,0,0,1,23.07,10.65Z" transform="translate(-0.6 -1.14)"/><path class="cls-9" d="M21.83,11.63a4.93,4.93,0,0,1,.72-.29,5,5,0,0,1,.77-.13,4.93,4.93,0,0,1-.72.29A5,5,0,0,1,21.83,11.63Z" transform="translate(-0.6 -1.14)"/><path class="cls-9" d="M21.39,10.41a3.69,3.69,0,0,1,.71-.3,5,5,0,0,1,.77-.13,5,5,0,0,1-.72.3A4.83,4.83,0,0,1,21.39,10.41Z" transform="translate(-0.6 -1.14)"/><path class="cls-9" d="M20.57,11.39a4.51,4.51,0,0,1,.72-.29,3.77,3.77,0,0,1,.76-.13,4.93,4.93,0,0,1-.72.29A4.83,4.83,0,0,1,20.57,11.39Z" transform="translate(-0.6 -1.14)"/></g><path class="cls-19" d="M30.28,10.26,20.84,12.8a1,1,0,0,1-1.19-.71l-.22-.85A1,1,0,0,1,20.12,10L29.56,7.5a1.41,1.41,0,0,1,1.73,1h0A1.44,1.44,0,0,1,30.28,10.26Z" transform="translate(-0.6 -1.14)"/><path class="cls-12" d="M28.43,8.62a2.2,2.2,0,0,1,.41-.79,1.89,1.89,0,0,1,.59-.63c.24-.13.57.06.84.09a1.1,1.1,0,0,1,.64.33c.19.18.64.23.73.49s-.19.57-.22.85.16.65,0,.87-.54.28-.76.4a1.24,1.24,0,0,1-.75.16c-.28,0-.66,0-.86-.13a2.15,2.15,0,0,1-.59-.72A2.35,2.35,0,0,1,28.43,8.62Z" transform="translate(-0.6 -1.14)"/><path class="cls-24" d="M28.43,8.62a2.2,2.2,0,0,1,.41-.79,1.89,1.89,0,0,1,.59-.63c.24-.13.57.06.84.09a1.1,1.1,0,0,1,.64.33c.19.18.64.23.73.49s-.19.57-.22.85.16.65,0,.87-.54.28-.76.4a1.24,1.24,0,0,1-.75.16c-.28,0-.66,0-.86-.13a2.15,2.15,0,0,1-.59-.72A2.35,2.35,0,0,1,28.43,8.62Z" transform="translate(-0.6 -1.14)"/><path class="cls-12" d="M36.68,13.15a2.13,2.13,0,0,1,.84-.27,1.92,1.92,0,0,1,.86,0c.25.08.34.44.51.66a1.14,1.14,0,0,1,.22.69c0,.26.28.61.16.86s-.52.28-.74.45-.36.56-.61.62-.57-.19-.82-.27a1.17,1.17,0,0,1-.62-.43c-.17-.22-.49-.44-.51-.71a2.39,2.39,0,0,1,.09-.92A2.49,2.49,0,0,1,36.68,13.15Z" transform="translate(-0.6 -1.14)"/><path class="cls-24" d="M36.68,13.15a2.13,2.13,0,0,1,.84-.27,1.92,1.92,0,0,1,.86,0c.25.08.34.44.51.66a1.14,1.14,0,0,1,.22.69c0,.26.28.61.16.86s-.52.28-.74.45-.36.56-.61.62-.57-.19-.82-.27a1.17,1.17,0,0,1-.62-.43c-.17-.22-.49-.44-.51-.71a2.39,2.39,0,0,1,.09-.92A2.49,2.49,0,0,1,36.68,13.15Z" transform="translate(-0.6 -1.14)"/><path class="cls-7" d="M20.26,8.73c4.06,4.92-.41,5.18-3.8,8.08S12.18,24.29,8,19.26A8.39,8.39,0,0,1,8.82,7.62,8.1,8.1,0,0,1,20.26,8.73Z" transform="translate(-0.6 -1.14)"/><g class="cls-27"><path class="cls-12" d="M19.41,11.19a15.1,15.1,0,0,0-1.48-.51,21.66,21.66,0,0,0-.65-2.1L16.07,7.17c-.47-.54-4.71-2.8-5.25-2.33L9.38,7.13a6.45,6.45,0,0,1-1.12,1L5.77,9.18c-.54.47,1,5.11,1.4,5.67l1.17,1.42c.11.13,1.72.88,1.91,1a15.15,15.15,0,0,0,.24,1.59l1,1.18c.46.56,1.82-1.34,2.37-1.81l2-2.29,2.33-1.4c.56-.48,2.76-1.64,2.28-2.19Z" transform="translate(-0.6 -1.14)"/><g class="cls-28"><path class="cls-9" d="M10.61,9.73a1.56,1.56,0,0,1,.28.23,3,3,0,0,1,.22.28,4,4,0,0,1,.42.57,4.06,4.06,0,0,1-.52-.49,1.48,1.48,0,0,1-.24-.26A1.26,1.26,0,0,1,10.61,9.73Z" transform="translate(-0.6 -1.14)"/><path class="cls-9" d="M12.32,11.85a1.57,1.57,0,0,1,.37.3,1.47,1.47,0,0,1,.24.4,1.57,1.57,0,0,1-.37-.3A1.47,1.47,0,0,1,12.32,11.85Z" transform="translate(-0.6 -1.14)"/><path class="cls-9" d="M11,11.1a2.11,2.11,0,0,1,.37.3,1.47,1.47,0,0,1,.24.4,1.57,1.57,0,0,1-.37-.3A1.33,1.33,0,0,1,11,11.1Z" transform="translate(-0.6 -1.14)"/><path class="cls-9" d="M11.81,10.41a1.86,1.86,0,0,1,.38.3,1.47,1.47,0,0,1,.24.4,1.86,1.86,0,0,1-.38-.3A2.23,2.23,0,0,1,11.81,10.41Z" transform="translate(-0.6 -1.14)"/><path class="cls-9" d="M10.81,8.93a1.53,1.53,0,0,1,.38.29,1.69,1.69,0,0,1,.24.41,2.28,2.28,0,0,1-.38-.3A2,2,0,0,1,10.81,8.93Z" transform="translate(-0.6 -1.14)"/><path class="cls-9" d="M9.85,10a1.32,1.32,0,0,1,.37.29,2.14,2.14,0,0,1,.25.41,1.94,1.94,0,0,1-.38-.3A2,2,0,0,1,9.85,10Z" transform="translate(-0.6 -1.14)"/><path class="cls-9" d="M9.48,8.43a1.57,1.57,0,0,1,.37.3,1.8,1.8,0,0,1,.25.4,1.63,1.63,0,0,1-.38-.3A1.57,1.57,0,0,1,9.48,8.43Z" transform="translate(-0.6 -1.14)"/><path class="cls-9" d="M8.6,8.48a1.86,1.86,0,0,1,.38.3,2.23,2.23,0,0,1,.24.4C9.05,9.11,9,9,8.84,8.89A1.84,1.84,0,0,1,8.6,8.48Z" transform="translate(-0.6 -1.14)"/><path class="cls-9" d="M9.56,7.42a1.86,1.86,0,0,1,.38.3,1.63,1.63,0,0,1,.24.4,2.24,2.24,0,0,1-.38-.29A2.33,2.33,0,0,1,9.56,7.42Z" transform="translate(-0.6 -1.14)"/><path class="cls-9" d="M13.23,12.94a2.11,2.11,0,0,1,.37.3,1.47,1.47,0,0,1,.24.4,1.83,1.83,0,0,1-.37-.29A1.52,1.52,0,0,1,13.23,12.94Z" transform="translate(-0.6 -1.14)"/><path class="cls-9" d="M13.45,13.83a2,2,0,0,1,.09.47,2.44,2.44,0,0,1-.09.47,1.62,1.62,0,0,1-.09-.47A2.6,2.6,0,0,1,13.45,13.83Z" transform="translate(-0.6 -1.14)"/><path class="cls-9" d="M14.06,13.4a2,2,0,0,1,.47-.11,1.82,1.82,0,0,1,.46.06,1.34,1.34,0,0,1-.46.11A1.52,1.52,0,0,1,14.06,13.4Z" transform="translate(-0.6 -1.14)"/><path class="cls-9" d="M14.13,14a1.53,1.53,0,0,1,.38.29,1.69,1.69,0,0,1,.24.41,1.86,1.86,0,0,1-.37-.3A2.06,2.06,0,0,1,14.13,14Z" transform="translate(-0.6 -1.14)"/><path class="cls-9" d="M14.93,15a1.57,1.57,0,0,1,.37.3,2.06,2.06,0,0,1,.25.4c-.17-.07-.25-.2-.38-.29A1.84,1.84,0,0,1,14.93,15Z" transform="translate(-0.6 -1.14)"/><path class="cls-9" d="M12.76,15.17a1.91,1.91,0,0,1,0,.48,1.78,1.78,0,0,1-.13.45,1.59,1.59,0,0,1,0-.48A1.45,1.45,0,0,1,12.76,15.17Z" transform="translate(-0.6 -1.14)"/><path class="cls-9" d="M12.78,16.84a2.63,2.63,0,0,1,.37.29,1.69,1.69,0,0,1,.24.41,1.57,1.57,0,0,1-.37-.3A1.47,1.47,0,0,1,12.78,16.84Z" transform="translate(-0.6 -1.14)"/><path class="cls-9" d="M17.22,13a2.11,2.11,0,0,1,.37.3,1.47,1.47,0,0,1,.24.4,1.83,1.83,0,0,1-.37-.29A1.52,1.52,0,0,1,17.22,13Z" transform="translate(-0.6 -1.14)"/><path class="cls-9" d="M11,18a1.89,1.89,0,0,1,.17.45,1.92,1.92,0,0,1,0,.48,1.69,1.69,0,0,1-.18-.45A1.55,1.55,0,0,1,11,18Z" transform="translate(-0.6 -1.14)"/><path class="cls-9" d="M15.62,12.66a1.92,1.92,0,0,1,.48,0,1.75,1.75,0,0,1,.43.17,1.84,1.84,0,0,1-.47,0A1.82,1.82,0,0,1,15.62,12.66Z" transform="translate(-0.6 -1.14)"/><path class="cls-9" d="M18.46,11.53a1.79,1.79,0,0,1,.46.09,1.56,1.56,0,0,1,.4.25,1.87,1.87,0,0,1-.46-.09A1.56,1.56,0,0,1,18.46,11.53Z" transform="translate(-0.6 -1.14)"/><path class="cls-9" d="M12.12,16.11a2,2,0,0,1,0,.48A1.78,1.78,0,0,1,12,17a1.59,1.59,0,0,1,0-.48A1.78,1.78,0,0,1,12.12,16.11Z" transform="translate(-0.6 -1.14)"/><path class="cls-9" d="M11.36,16.29a2,2,0,0,1,0,.48,1.43,1.43,0,0,1-.13.46,2.67,2.67,0,0,1,0-.48A2,2,0,0,1,11.36,16.29Z" transform="translate(-0.6 -1.14)"/><path class="cls-9" d="M16.48,12.14a1.88,1.88,0,0,1,.46-.06,2.6,2.6,0,0,1,.46.12,1.46,1.46,0,0,1-.46.06A2.39,2.39,0,0,1,16.48,12.14Z" transform="translate(-0.6 -1.14)"/><path class="cls-9" d="M17,11.5a1.85,1.85,0,0,1,.46-.05,1.82,1.82,0,0,1,.46.11,1.46,1.46,0,0,1-.46.06A1.57,1.57,0,0,1,17,11.5Z" transform="translate(-0.6 -1.14)"/><path class="cls-9" d="M10.37,11.56a2.17,2.17,0,0,1-.51-.08,2.94,2.94,0,0,1-.46-.25,2.09,2.09,0,0,1,.51.08A2.55,2.55,0,0,1,10.37,11.56Z" transform="translate(-0.6 -1.14)"/><path class="cls-9" d="M9.35,10.33a2.66,2.66,0,0,1-.63-.09A3.11,3.11,0,0,1,8.13,10a2.59,2.59,0,0,1,.63.09A3.11,3.11,0,0,1,9.35,10.33Z" transform="translate(-0.6 -1.14)"/><path class="cls-9" d="M9,11.83a3.57,3.57,0,0,1-.57,0,2.7,2.7,0,0,1-.54-.2,2.69,2.69,0,0,1,.57,0A2.7,2.7,0,0,1,9,11.83Z" transform="translate(-0.6 -1.14)"/><path class="cls-9" d="M8.68,10.91a3.41,3.41,0,0,1-.64-.1,3.33,3.33,0,0,1-.58-.26,3.31,3.31,0,0,1,.63.1A3.11,3.11,0,0,1,8.68,10.91Z" transform="translate(-0.6 -1.14)"/><path class="cls-9" d="M8.06,12.38a3.29,3.29,0,0,1-.64-.1A3.33,3.33,0,0,1,6.84,12a3.31,3.31,0,0,1,.63.1A3.79,3.79,0,0,1,8.06,12.38Z" transform="translate(-0.6 -1.14)"/><path class="cls-9" d="M7.72,13.37a2.18,2.18,0,0,1-.51-.09A2.3,2.3,0,0,1,6.75,13a2.27,2.27,0,0,1,.52.09A1.66,1.66,0,0,1,7.72,13.37Z" transform="translate(-0.6 -1.14)"/><path class="cls-9" d="M12.51,10a2.35,2.35,0,0,1-.17-.51,2.26,2.26,0,0,1,0-.52,2.27,2.27,0,0,1,.17.5A2.35,2.35,0,0,1,12.51,10Z" transform="translate(-0.6 -1.14)"/><path class="cls-9" d="M11.49,8.75a3,3,0,0,1-.16-.64,3.55,3.55,0,0,1,0-.65,2.86,2.86,0,0,1,.16.64A3.55,3.55,0,0,1,11.49,8.75Z" transform="translate(-0.6 -1.14)"/><path class="cls-9" d="M13,8.62a2.28,2.28,0,0,1-.1-.57A2.22,2.22,0,0,1,13,7.48a2.84,2.84,0,0,1,.1.57A3.7,3.7,0,0,1,13,8.62Z" transform="translate(-0.6 -1.14)"/><path class="cls-9" d="M12.16,8.17A3.64,3.64,0,0,1,12,7.54a3.53,3.53,0,0,1,0-.65,3.4,3.4,0,0,1,.15.63A2.83,2.83,0,0,1,12.16,8.17Z" transform="translate(-0.6 -1.14)"/><path class="cls-9" d="M13.69,7.79a3.42,3.42,0,0,1-.16-.63,3.53,3.53,0,0,1,0-.65,3.6,3.6,0,0,1,.15.63A2.83,2.83,0,0,1,13.69,7.79Z" transform="translate(-0.6 -1.14)"/><path class="cls-9" d="M14.7,7.63a1.89,1.89,0,0,1-.16-.51,1.81,1.81,0,0,1,0-.52,2.27,2.27,0,0,1,.17.5A2.37,2.37,0,0,1,14.7,7.63Z" transform="translate(-0.6 -1.14)"/><path class="cls-9" d="M8.67,9.52a2.18,2.18,0,0,1-.51-.09,2.3,2.3,0,0,1-.46-.25,2.09,2.09,0,0,1,.51.09A1.72,1.72,0,0,1,8.67,9.52Z" transform="translate(-0.6 -1.14)"/><path class="cls-9" d="M10.69,7.79a2.46,2.46,0,0,1-.17-.5,2.35,2.35,0,0,1,0-.53,1.82,1.82,0,0,1,.16.5A1.88,1.88,0,0,1,10.69,7.79Z" transform="translate(-0.6 -1.14)"/><path class="cls-9" d="M12.74,7.2a2.27,2.27,0,0,1-.17-.5,2.35,2.35,0,0,1,0-.53,2.46,2.46,0,0,1,.17.5A2.35,2.35,0,0,1,12.74,7.2Z" transform="translate(-0.6 -1.14)"/><path class="cls-9" d="M7.53,11.2A2.18,2.18,0,0,1,7,11.11a2.94,2.94,0,0,1-.46-.25,1.62,1.62,0,0,1,1,.34Z" transform="translate(-0.6 -1.14)"/></g><path class="cls-29" d="M19.41,11.19a15.1,15.1,0,0,0-1.48-.51,21.66,21.66,0,0,0-.65-2.1L16.07,7.17c-.47-.54-4.71-2.8-5.25-2.33L9.38,7.13a6.45,6.45,0,0,1-1.12,1L5.77,9.18c-.54.47,1,5.11,1.4,5.67l1.17,1.42c.11.13,1.72.88,1.91,1a15.15,15.15,0,0,0,.24,1.59l1,1.18c.46.56,1.82-1.34,2.37-1.81l2-2.29,2.33-1.4c.56-.48,2.76-1.64,2.28-2.19Z" transform="translate(-0.6 -1.14)"/><path class="cls-9" d="M7.54,16.06a2.28,2.28,0,0,1-.4-.35,2.24,2.24,0,0,1-.27-.45,1.89,1.89,0,0,1,.4.34A2.32,2.32,0,0,1,7.54,16.06Z" transform="translate(-0.6 -1.14)"/><path class="cls-9" d="M7.91,17.61a2.24,2.24,0,0,1-.4-.34,2.64,2.64,0,0,1-.27-.46,1.93,1.93,0,0,1,.4.35A2.24,2.24,0,0,1,7.91,17.61Z" transform="translate(-0.6 -1.14)"/><path class="cls-9" d="M9.13,18a2.24,2.24,0,0,1-.4-.34,2.64,2.64,0,0,1-.27-.46,1.93,1.93,0,0,1,.4.35A2.24,2.24,0,0,1,9.13,18Z" transform="translate(-0.6 -1.14)"/><path class="cls-9" d="M9.38,19.39A2.17,2.17,0,0,1,9,19a1.86,1.86,0,0,1-.27-.45,2.66,2.66,0,0,1,.4.34A2.59,2.59,0,0,1,9.38,19.39Z" transform="translate(-0.6 -1.14)"/><path class="cls-9" d="M10.72,19.88a1.89,1.89,0,0,1-.4-.34,2.24,2.24,0,0,1-.27-.45,1.89,1.89,0,0,1,.4.34A2.24,2.24,0,0,1,10.72,19.88Z" transform="translate(-0.6 -1.14)"/><path class="cls-9" d="M11,20.75a2,2,0,0,1-.49-.16,2.12,2.12,0,0,1-.42-.32,2.11,2.11,0,0,1,.5.17A2.1,2.1,0,0,1,11,20.75Z" transform="translate(-0.6 -1.14)"/><path class="cls-9" d="M17.16,7.69c-.17-.08-.26-.23-.4-.34a2.2,2.2,0,0,1-.26-.45c.17.08.26.23.4.34A2.2,2.2,0,0,1,17.16,7.69Z" transform="translate(-0.6 -1.14)"/><path class="cls-9" d="M18.61,8.33a2.28,2.28,0,0,1-.4-.35A1.82,1.82,0,0,1,18,7.53a2.12,2.12,0,0,1,.39.34A2.32,2.32,0,0,1,18.61,8.33Z" transform="translate(-0.6 -1.14)"/><path class="cls-9" d="M18.75,9.61a2.23,2.23,0,0,1-.4-.35,2.2,2.2,0,0,1-.26-.45,2.66,2.66,0,0,1,.4.34A2.59,2.59,0,0,1,18.75,9.61Z" transform="translate(-0.6 -1.14)"/><path class="cls-9" d="M20.08,10.1a2.12,2.12,0,0,1-.39-.34,1.86,1.86,0,0,1-.27-.45c.17.08.26.23.4.34A1.82,1.82,0,0,1,20.08,10.1Z" transform="translate(-0.6 -1.14)"/><path class="cls-9" d="M20.34,11.52c-.17-.08-.26-.23-.4-.34a2.59,2.59,0,0,1-.26-.46,2.23,2.23,0,0,1,.4.35A2.2,2.2,0,0,1,20.34,11.52Z" transform="translate(-0.6 -1.14)"/><path class="cls-9" d="M21.14,12a2.09,2.09,0,0,1-.24-.47,3.08,3.08,0,0,1-.08-.53,2.09,2.09,0,0,1,.24.47A1.89,1.89,0,0,1,21.14,12Z" transform="translate(-0.6 -1.14)"/></g><path class="cls-19" d="M20.26,8.73c4.06,4.92-.41,5.18-3.8,8.08S12.18,24.29,8,19.26A8.39,8.39,0,0,1,8.82,7.62,8.1,8.1,0,0,1,20.26,8.73Z" transform="translate(-0.6 -1.14)"/><path class="cls-30" d="M13,17.87a1.13,1.13,0,0,1-.26,1.34c-.37.31-.77.69-1.1.25a1.92,1.92,0,0,1-.12-1.86C12.21,16.72,12.67,17.11,13,17.87Z" transform="translate(-0.6 -1.14)"/><path class="cls-31" d="M12,18a.48.48,0,0,1-.11.56c-.16.13-.32.3-.47.11a.83.83,0,0,1-.05-.79C11.68,17.49,11.87,17.66,12,18Z" transform="translate(-0.6 -1.14)"/><path class="cls-30" d="M14.63,15.42a1.15,1.15,0,0,1-.26,1.34c-.37.31-.77.7-1.11.25a1.94,1.94,0,0,1-.12-1.86C13.86,14.27,14.33,14.67,14.63,15.42Z" transform="translate(-0.6 -1.14)"/><path class="cls-31" d="M13.66,15.53a.49.49,0,0,1-.12.57c-.15.13-.32.29-.46.1a.81.81,0,0,1-.05-.78C13.33,15.05,13.53,15.21,13.66,15.53Z" transform="translate(-0.6 -1.14)"/><path class="cls-30" d="M18.09,13.48a1,1,0,0,0,1.3,0c.37-.31.81-.64.47-1.08a1.71,1.71,0,0,0-1.7-.53C17.19,12.44,17.46,13,18.09,13.48Z" transform="translate(-0.6 -1.14)"/><path class="cls-31" d="M17.86,13a.41.41,0,0,0,.54,0c.16-.13.35-.27.2-.45a.7.7,0,0,0-.71-.22C17.48,12.52,17.59,12.76,17.86,13Z" transform="translate(-0.6 -1.14)"/><path class="cls-30" d="M15.51,14.66a1,1,0,0,0,1.29,0c.37-.31.81-.63.47-1.07a1.66,1.66,0,0,0-1.69-.53C14.61,13.62,14.87,14.18,15.51,14.66Z" transform="translate(-0.6 -1.14)"/><path class="cls-31" d="M15.12,14.22a.42.42,0,0,0,.55,0c.15-.13.34-.27.19-.46a.72.72,0,0,0-.71-.22C14.74,13.78,14.85,14,15.12,14.22Z" transform="translate(-0.6 -1.14)"/><path class="cls-30" d="M9,16.33c.93.62,1.86-.33,2.73-1S13.69,13.87,13,13a3.62,3.62,0,0,0-3.72-.89C7,13.36,7.7,15.41,9,16.33Z" transform="translate(-0.6 -1.14)"/><path class="cls-31" d="M9.48,14.07a.88.88,0,0,1-.25,1c-.31.26-.63.57-.88.26a1.34,1.34,0,0,1,0-1.38C8.91,13.27,9.27,13.53,9.48,14.07Z" transform="translate(-0.6 -1.14)"/><path class="cls-30" d="M17.21,9.28c.46,1-.62,1.81-1.45,2.56s-1.71,1.68-2.45.84a3.75,3.75,0,0,1-.24-3.88C14.68,6.75,16.56,7.78,17.21,9.28Z" transform="translate(-0.6 -1.14)"/><path class="cls-31" d="M14,10.21a.87.87,0,0,1-.26,1c-.3.25-.62.57-.88.26a1.34,1.34,0,0,1,0-1.38C13.46,9.41,13.82,9.67,14,10.21Z" transform="translate(-0.6 -1.14)"/></g></g></svg>